<svg width="20" height="22" viewBox="0 0 20 22" fill="none" xmlns="http://www.w3.org/2000/svg">
<path fill-rule="evenodd" clip-rule="evenodd" d="M10.5562 20.3221V9.71365C10.7339 9.69887 10.9198 9.57425 11.0592 9.50384C11.23 9.41758 11.3946 9.35861 11.5769 9.26671C12.531 8.7857 13.6255 8.32911 14.5676 7.85471L15.5637 7.38324C15.7619 7.30142 15.8787 7.24173 16.049 7.15573L17.558 6.44245C17.7203 6.36251 17.8732 6.30765 18.0479 6.21953L18.565 5.98184V16.5903C18.3139 16.6487 17.8132 16.9401 17.5528 17.0456L10.5562 20.3221ZM9.95642 0.279297H9.9874C10.1588 0.28434 10.3548 0.366368 10.7105 0.544354C11.6555 1.01723 12.8476 1.52588 13.7569 1.98455C15.2468 2.73614 17.1781 3.54298 18.6628 4.29061C19.0941 4.5078 19.6552 4.64614 19.6552 5.05937V16.9676C19.6552 17.3641 19.1826 17.486 18.9142 17.6104C18.8079 17.6596 18.7404 17.6972 18.6349 17.7504C17.3337 18.4068 15.6393 19.116 14.3301 19.7771C14.1329 19.8768 13.9387 19.9509 13.7289 20.0565L11.2812 21.2147C9.40084 22.0172 10.4943 21.9685 7.45284 20.6161L5.59444 19.749C4.45122 19.1734 3.04407 18.584 1.91872 18.0157C1.30161 17.7041 0.325195 17.4416 0.325195 16.9676V5.05937C0.325195 4.77393 0.548995 4.64884 0.743481 4.55517C0.946338 4.45747 1.133 4.38375 1.34544 4.2766L2.57597 3.70413C3.75462 3.1144 5.13111 2.53465 6.25141 1.97053L8.69918 0.812283C9.45392 0.490168 9.684 0.286154 9.95642 0.279297ZM1.4154 5.98184C1.58404 6.06277 1.7264 6.1158 1.90455 6.2055L6.89428 8.55361C7.64847 8.93338 8.6678 9.35538 9.42411 9.75558V20.3221L2.9388 17.2892C2.74782 17.1928 2.61241 17.1355 2.42227 17.0509C2.26082 16.9791 2.11927 16.8936 1.94672 16.8137L1.4154 16.5903V5.98184ZM9.42411 1.70494C9.42411 2.38065 9.23874 3.50794 9.96921 3.50794C10.3588 3.50794 10.5041 3.24183 10.5466 2.91123C10.5878 2.58977 10.5562 2.05037 10.5562 1.70494L13.7287 3.18678C13.896 3.27115 14.0238 3.31211 14.1907 3.39563L15.5605 4.03851C15.7236 4.11681 15.8556 4.19447 16.0077 4.26214C16.3297 4.40531 16.6072 4.53938 16.9291 4.68254C17.0833 4.7511 17.7396 5.0468 17.8102 5.14323C17.4407 5.22933 15.4343 6.26363 14.8872 6.49713L10.0053 8.77802C9.88752 8.78548 7.97672 7.85394 7.57979 7.65844C7.41748 7.5785 7.26461 7.52364 7.08991 7.43551L3.66511 5.82864C3.3092 5.6578 2.45802 5.2103 2.17014 5.14323C2.26084 5.01944 2.40601 4.98407 2.57175 4.91588L3.9371 4.26857C4.11212 4.1977 4.23617 4.13173 4.3923 4.05287C4.54344 3.97654 4.70364 3.91823 4.85431 3.84401C5.15317 3.69681 5.45292 3.56578 5.76215 3.41007L7.13194 2.7672C7.30778 2.67865 7.404 2.6356 7.5913 2.55565L9.42411 1.70494Z" fill="#539580"/>
<path fill-rule="evenodd" clip-rule="evenodd" d="M9.42383 5.1856V6.65316C9.42383 7.37121 10.556 7.69691 10.556 6.40157C10.556 5.60381 10.7215 4.55664 9.96893 4.55664C9.66707 4.55664 9.42383 4.86147 9.42383 5.1856Z" fill="#539580"/>
<path fill-rule="evenodd" clip-rule="evenodd" d="M2.75684 15.626C2.75684 15.9769 2.96845 16.213 3.30194 16.213C3.52228 16.213 4.13704 15.8996 4.35082 15.7944C4.96546 15.4916 5.14688 15.4891 5.14688 14.9971C5.14688 14.7206 4.88188 14.5155 4.63945 14.5069C4.48641 14.5016 4.07109 14.6986 3.91637 14.7729C3.40371 15.019 2.75684 15.2161 2.75684 15.626Z" fill="#539580"/>
<path fill-rule="evenodd" clip-rule="evenodd" d="M16.6783 16.2132C17.249 16.2132 17.4367 15.4698 16.8868 15.1661L15.6589 14.5907C15.0481 14.3089 14.6759 14.8608 14.8527 15.2694C14.9819 15.568 15.6954 15.8236 16.0069 15.9621C16.1992 16.0477 16.4171 16.2132 16.6783 16.2132Z" fill="#539580"/>
<path fill-rule="evenodd" clip-rule="evenodd" d="M6.2373 13.9488C6.2373 15.1089 7.39373 14.3364 7.68063 14.2181C8.16476 14.0183 8.37576 13.9287 8.37576 13.4875C8.37576 13.2166 8.09796 12.9844 7.83066 12.9844C7.6399 12.9844 7.12438 13.2835 6.94958 13.3612C6.69385 13.4749 6.2373 13.5981 6.2373 13.9488Z" fill="#539580"/>
<path fill-rule="evenodd" clip-rule="evenodd" d="M11.6045 13.4875C11.6045 14.0887 12.0909 14.1014 12.6947 14.41C12.9284 14.5295 12.9792 14.5777 13.2817 14.5777C13.5349 14.5777 13.7429 14.3447 13.7429 13.9907C13.7429 13.6048 13.3341 13.5089 13.0575 13.3763C12.8971 13.2993 12.3023 12.9844 12.1496 12.9844C11.8684 12.9844 11.6045 13.2114 11.6045 13.4875Z" fill="#539580"/>
</svg>
