<svg width="19" height="25" viewBox="0 0 19 25" fill="none" xmlns="http://www.w3.org/2000/svg">
<path fill-rule="evenodd" clip-rule="evenodd" d="M10.7956 7.2839C10.7956 5.86373 11.3017 3.7182 11.3017 2.83015C11.4498 3.06356 11.7729 6.0471 11.8419 6.49066C11.9419 7.1334 12.2579 7.13208 12.82 7.13208C13.283 7.13208 13.4539 6.87036 13.54 6.46312C13.6884 5.76069 14.0452 3.40288 14.0853 2.93136C14.0886 3.06643 14.1744 3.78267 14.222 4.11058L14.5416 6.47331C14.6262 7.10208 14.9667 7.13208 15.4518 7.13208C16.3595 7.13208 16.2125 6.50435 16.3841 5.28083L16.7505 2.86355C16.7538 2.85614 16.761 2.84072 16.7677 2.83015C16.7677 3.18827 16.8364 3.51636 16.8838 3.87807C17.0221 4.93324 17.2738 6.24914 17.2738 7.2839C17.2738 8.27701 16.9571 8.89043 16.4519 9.39747C15.6611 10.1912 14.6926 10.02 14.6926 10.5736C14.6926 11.1642 14.6782 11.7884 14.7358 12.3018C14.7632 12.5455 14.7435 12.8993 14.7432 13.1548C14.7428 13.515 14.7788 13.7311 14.7941 14.0149C14.8086 14.283 14.7947 14.6025 14.7937 14.8757L14.8438 16.597C14.8417 16.964 14.8977 17.1027 14.8962 17.4556C14.8951 17.7431 14.8929 18.0314 14.8933 18.3189C14.8938 18.6497 14.9479 18.8065 14.946 19.1772C14.9426 19.8451 15.1287 23.1725 15.0157 23.4988C14.8616 23.9433 14.1905 23.8337 13.6298 23.8337C12.8352 23.8337 13.0225 23.1159 13.0224 22.6697C13.0221 21.1072 13.1826 19.0753 13.1736 17.5067C13.1716 17.152 13.2262 17.0249 13.2266 16.6993C13.227 16.3948 13.2227 16.0894 13.2232 15.7848C13.2236 15.4592 13.2782 15.3322 13.2762 14.9775L13.3767 10.5736C13.3767 10.0236 12.3976 10.1805 11.6174 9.39747C11.1123 8.89043 10.7956 8.27701 10.7956 7.2839ZM1.07825 6.52474C1.07825 3.98745 2.86 0.244351 5.11156 1.378C5.82569 1.73755 6.27674 2.38319 6.67492 3.05374C6.91424 3.45676 7.14002 4.07094 7.28295 4.57137C7.60156 5.68675 7.64106 6.81757 7.35553 7.9434C7.08197 9.02209 6.40244 9.7349 5.40067 10.1386C5.21532 10.2133 4.97528 10.349 4.97528 10.5736C4.97528 12.0443 5.08158 13.4681 5.07636 14.8757L5.12646 16.597C5.12434 16.964 5.18036 17.1027 5.17892 17.4556C5.17774 17.7431 5.17561 18.0314 5.17601 18.3189C5.17646 18.6497 5.23059 18.8065 5.22868 19.1772C5.22539 19.8166 5.28036 20.3091 5.27902 20.8982C5.27754 21.5419 5.32991 22.0057 5.32957 22.6191C5.32884 23.9348 5.32624 23.8337 3.91246 23.8337C3.16025 23.8337 3.30512 23.1873 3.30512 22.6697C3.30512 21.0984 3.4647 19.0762 3.45663 17.507C3.45479 17.1521 3.50586 17.0017 3.50958 16.6996C3.51331 16.3972 3.50764 16.0884 3.50639 15.7854C3.50498 15.4403 3.56079 15.3231 3.55937 14.978C3.55814 14.675 3.55243 14.3661 3.55616 14.0638C3.5599 13.7617 3.61095 13.6113 3.60913 13.2563L3.65939 10.5736C3.65939 9.96724 1.88919 10.1703 1.29014 7.98302C1.18708 7.60673 1.07825 6.97729 1.07825 6.52474ZM2.54596 11.0291C2.54596 11.2824 2.54517 11.5357 2.54663 11.789L2.49568 13.3576C2.49742 13.6962 2.45133 13.8394 2.44308 14.1147C2.41285 15.1258 2.45513 16.2829 2.35093 17.2111C2.24541 18.1508 2.40875 19.4138 2.27154 20.3202C2.19799 20.8062 2.28959 21.3653 2.23489 21.8525C2.18179 22.3256 2.19168 22.8805 2.19168 23.4288C2.19168 24.2173 2.97297 24.9472 3.96306 24.9472C4.78005 24.9472 5.75981 25.0146 6.24238 24.0886C6.53648 23.5243 6.50502 22.5426 6.41376 21.9398C6.33695 21.4323 6.44785 20.8703 6.37103 20.3629C6.23427 19.4594 6.36784 18.2154 6.28853 17.257C6.2065 16.2659 6.22311 15.2189 6.19162 14.1654C6.18338 13.89 6.13725 13.7468 6.13902 13.4082L6.08873 11.0291C7.0243 10.8112 7.91678 9.54546 8.24339 8.73001C8.91963 7.04165 8.70307 4.85027 7.9441 3.15106C7.14966 1.37239 5.548 -0.520411 3.38583 0.228434C3.13831 0.314168 2.8277 0.474532 2.6467 0.602776C1.34614 1.524 0.471425 3.18774 0.153674 4.84103C-0.183772 6.59666 -0.0227671 8.84861 1.21667 10.0809C1.41548 10.2786 1.57039 10.4527 1.79294 10.6181C1.96703 10.7475 2.31831 10.9761 2.54596 11.0291ZM14.1907 0C14.6378 0 15.0575 0.353666 15.0575 0.789894L15.4012 4.34848L15.6123 2.73764C15.6716 2.31956 15.8079 0.779271 16.0146 0.457528C16.4153 -0.166228 17.3928 -0.0213175 17.5758 0.756741C17.6851 1.22124 17.913 3.24374 18.0105 3.91541C18.2811 5.77848 18.8185 8.0887 17.6578 9.69233C16.9818 10.6262 16.5334 10.6949 15.8061 11.0797C15.8061 11.3501 15.806 11.6204 15.8049 11.8907C15.8035 12.2263 15.858 12.327 15.8584 12.647C15.8588 12.9172 15.8576 13.1888 15.856 13.4591C15.8541 13.7844 15.9009 13.8962 15.9089 14.1654C15.9406 15.223 15.9238 16.2656 16.0058 17.257C16.0852 18.2154 15.9516 19.4594 16.0884 20.3629C16.1652 20.8703 16.0543 21.4323 16.1311 21.9398C16.2033 22.4168 16.1603 22.976 16.1603 23.4794C16.1603 23.8849 15.856 24.283 15.5919 24.5305C14.9797 25.1042 13.096 25.1284 12.4519 24.5055C12.1922 24.2543 11.909 23.9114 11.909 23.4288C11.909 22.8805 11.8991 22.3256 11.9522 21.8525C12.0069 21.3653 11.9153 20.8062 11.9889 20.3202C12.1261 19.4138 11.9627 18.1508 12.0682 17.2111C12.1724 16.2829 12.1302 15.1258 12.1604 14.1147C12.1687 13.8394 12.2148 13.6962 12.213 13.3576L12.2645 11.8401C12.2634 11.5866 12.2633 11.3332 12.2633 11.0797C11.7869 10.8276 11.7964 10.9408 11.2142 10.5093C10.1961 9.75443 9.68212 8.62599 9.68212 7.1827C9.68212 6.58698 9.76223 6.04782 9.83674 5.5153C9.9111 4.98364 9.97744 4.47125 10.0513 3.90787L10.4935 0.756741C10.6758 -0.0180914 11.6776 -0.18038 12.0741 0.48872C12.252 0.788896 12.4078 2.38829 12.463 2.78231L12.6682 4.34848C12.8663 3.30406 13.2825 0.914128 13.3753 0.578286C13.4684 0.241695 13.8188 0 14.1907 0Z" fill="#539580"/>
</svg>
