<svg width="20" height="19" viewBox="0 0 20 19" fill="none" xmlns="http://www.w3.org/2000/svg">
<path fill-rule="evenodd" clip-rule="evenodd" d="M1.48632 3.22693C2.22257 3.28819 2.28498 3.9072 4.13182 3.9072C5.84341 3.9072 6.21527 2.46479 8.35174 3.54215C9.31944 4.03013 10.6333 4.0403 11.6027 3.55492C13.8127 2.44829 14.0645 3.9072 15.8476 3.9072C17.6944 3.9072 17.7569 3.28819 18.4931 3.22693V17.5504H1.48632V3.22693ZM0.352539 0.117188V18.1929C0.352539 18.4246 0.612096 18.6842 0.843839 18.6842H19.1356C19.3673 18.6842 19.6269 18.4246 19.6269 18.1929V0.117188H18.4931V2.05534C17.297 2.05534 16.7429 3.43504 14.6509 2.38284C13.6776 1.89334 12.3723 1.88306 11.4002 2.36983C9.19718 3.47294 8.91677 2.01756 7.15525 2.01756C5.07952 2.01756 5.30852 2.77342 3.94285 2.77342C3.42621 2.77342 3.0385 2.62462 2.68307 2.4459C2.38647 2.29677 1.89997 2.05534 1.48632 2.05534V0.117188H0.352539Z" fill="#539580"/>
<path fill-rule="evenodd" clip-rule="evenodd" d="M7.91113 7.04403C7.91113 7.49446 8.10318 7.68652 8.5536 7.68652C8.87332 7.68652 9.18812 7.16342 9.42285 7.00624V14.4136C9.02193 14.1452 9.00245 13.7334 8.40243 13.7334C8.09519 13.7334 7.91113 14.0089 7.91113 14.3758C7.91113 14.6521 8.61946 15.2543 8.8276 15.4624C9.0378 15.6726 9.63835 16.3789 9.91415 16.3789C10.3289 16.3789 10.3246 16.2897 10.6417 15.9726L11.6432 14.9711C11.9676 14.6466 12.0683 14.6462 12.0683 14.2247C12.0683 13.9174 11.7928 13.7334 11.4259 13.7334C11.1061 13.7334 10.7913 14.2565 10.5566 14.4136V7.00624C10.9575 7.2747 10.977 7.68652 11.577 7.68652C11.8843 7.68652 12.0683 7.41096 12.0683 7.04403C12.0683 6.76776 11.36 6.16562 11.1519 5.95749C10.9417 5.74729 10.3411 5.04102 10.0653 5.04102C9.65053 5.04102 9.65486 5.13022 9.3378 5.44729L8.33629 6.44879C8.1949 6.59019 7.91113 6.79757 7.91113 7.04403Z" fill="#539580"/>
</svg>
