<svg width="20" height="20" viewBox="0 0 20 20" fill="none" xmlns="http://www.w3.org/2000/svg">
<path fill-rule="evenodd" clip-rule="evenodd" d="M1.44824 10.0855C1.44507 10.0691 1.50944 9.15385 1.5168 9.09588C1.76902 7.10712 2.50438 5.45796 3.93312 4.02922C4.20641 3.75592 4.45581 3.51059 4.76852 3.27732C6.04714 2.32355 7.28012 1.76876 8.90455 1.55545C9.2459 1.51063 9.57284 1.51958 9.92997 1.48452C10.5907 1.41966 11.9786 1.6864 12.6497 1.90745C13.4589 2.17396 14.0993 2.50546 14.797 2.97253C15.2495 3.27542 15.5922 3.57569 15.9701 3.95363C16.2434 4.22692 16.4888 4.47632 16.722 4.78903C17.5045 5.83793 17.9504 6.71389 18.2814 8.0294C18.4956 8.88099 18.4404 9.192 18.5215 9.9459C18.5614 10.3163 18.3938 11.4581 18.3133 11.8335C18.0705 12.9674 17.6481 13.8889 17.0268 14.8175C16.6123 15.4372 15.8313 16.2793 15.2103 16.7425C13.936 17.6931 12.6924 18.2519 11.0743 18.4644C10.733 18.5092 10.406 18.5003 10.0489 18.5353C9.6362 18.5759 8.57244 18.4209 8.16588 18.3338C7.53838 18.1995 7.07128 18.034 6.53934 17.8062C6.06422 17.6027 5.58981 17.3205 5.18181 17.0473C4.74557 16.7553 4.37398 16.4315 4.00871 16.0662C3.73541 15.7929 3.49008 15.5435 3.25681 15.2308C2.30571 13.9558 1.74764 12.7146 1.53494 11.0948C1.51135 10.9152 1.4864 10.7888 1.48454 10.6161C1.4808 10.2668 1.51361 10.4234 1.44824 10.0855ZM9.7501 0.334961H10.3511C11.6695 0.37339 12.9672 0.666204 14.0839 1.2291C15.7451 2.06645 16.8108 2.92219 17.91 4.43253C18.2578 4.91052 18.4942 5.36779 18.7703 5.91542C19.2135 6.79483 19.6644 8.3657 19.6644 9.6698V10.3501C19.6644 11.6693 19.2009 13.2512 18.7575 14.1295C17.9345 15.7596 17.0556 16.8535 15.5669 17.9305C15.0855 18.2788 14.6342 18.5134 14.0839 18.7908C13.2045 19.234 11.6337 19.6849 10.3296 19.6849H9.6493C8.3251 19.6849 6.75158 19.2232 5.86985 18.778C4.875 18.2757 3.51395 17.4098 2.83062 16.5263C2.20887 15.7224 2.26737 15.9608 1.59724 14.8496C1.45194 14.6087 1.33095 14.3495 1.19584 14.0794C0.513225 12.7152 0.314453 11.3292 0.314453 9.632C0.314453 7.83162 1.12717 5.69118 2.1011 4.38918C3.02777 3.15033 3.76944 2.45016 5.14977 1.61775C6.47257 0.820018 8.10852 0.382747 9.7501 0.334961Z" fill="#539580"/>
<path fill-rule="evenodd" clip-rule="evenodd" d="M11.7656 5.85312C11.7656 5.94021 11.7919 5.96651 11.879 5.96651H14.0332V8.12069C14.0332 8.20778 14.0595 8.23408 14.1466 8.23408H15.2048V4.79492H11.7656V5.85312Z" fill="#539580"/>
<path fill-rule="evenodd" clip-rule="evenodd" d="M4.77441 15.2253H8.21357V14.1671C8.21357 14.08 8.18727 14.0537 8.10019 14.0537H5.946V11.8995C5.946 11.8124 5.9197 11.7861 5.83261 11.7861H4.77441V15.2253Z" fill="#539580"/>
<path fill-rule="evenodd" clip-rule="evenodd" d="M9.98047 9.20745L10.7737 10.0191L11.6236 9.18771L10.7918 8.37598L9.98047 9.20745Z" fill="#539580"/>
<path fill-rule="evenodd" clip-rule="evenodd" d="M8.35547 10.8324L9.16758 11.6261L9.99904 10.8131L9.20537 10.001L8.35547 10.8324Z" fill="#539580"/>
<path fill-rule="evenodd" clip-rule="evenodd" d="M11.6055 7.58173L12.3991 8.39383L13.2112 7.60019L12.4176 6.78809L11.6055 7.58173Z" fill="#539580"/>
<path fill-rule="evenodd" clip-rule="evenodd" d="M6.76758 12.4196L7.56122 13.2317L8.37332 12.4381L7.57968 11.626L6.76758 12.4196Z" fill="#539580"/>
</svg>
