<svg width="20" height="20" viewBox="0 0 20 20" fill="none" xmlns="http://www.w3.org/2000/svg">
<path fill-rule="evenodd" clip-rule="evenodd" d="M1.45898 17.8611V6.06971H18.5414V17.8611C18.5414 18.3065 18.3065 18.5414 17.8611 18.5414H2.13925C1.69385 18.5414 1.45898 18.3065 1.45898 17.8611ZM1.45898 2.13925C1.45898 1.69385 1.69385 1.45898 2.13925 1.45898H17.8611C18.3065 1.45898 18.5414 1.69385 18.5414 2.13925V4.93592H1.45898V2.13925ZM0.325195 1.95029V18.0501C0.325195 18.5533 0.546067 18.8966 0.806852 19.1557C1.09257 19.4396 1.46051 19.6751 1.9125 19.6751H18.0501C18.6986 19.6751 19.2689 19.2162 19.5 18.7442C19.5788 18.5833 19.6751 18.3079 19.6751 18.0878V1.9125C19.6751 1.7001 19.5858 1.43898 19.5123 1.28167C19.2863 0.798038 18.711 0.325195 18.0501 0.325195H1.9125C1.15407 0.325195 0.325195 1.07321 0.325195 1.95029Z" fill="#539580"/>
<path fill-rule="evenodd" clip-rule="evenodd" d="M15.0266 14.3838H16.2738V16.2734H14.2708C14.6121 15.7637 15.0137 14.965 15.0266 14.3838ZM3.72656 14.3838H4.97373C4.97953 14.6445 5.17064 15.1986 5.25947 15.4208C5.32843 15.5932 5.38852 15.7119 5.46453 15.8582C5.50733 15.9405 5.53714 15.9863 5.58973 16.0731C5.65333 16.1781 5.67296 16.1888 5.72959 16.2734H3.72656V14.3838ZM10.6804 14.3838H13.855C13.7484 14.8415 13.5823 15.2704 13.3376 15.6048C12.9895 16.0805 12.5187 16.398 11.9213 16.2042C11.354 16.0201 10.9626 15.2944 10.779 14.7387C10.745 14.636 10.7114 14.4531 10.6804 14.3838ZM8.41287 14.3838H9.50887C9.51446 14.6345 9.6995 15.1821 9.78386 15.3937C9.90819 15.7057 10.0575 15.9825 10.2269 16.2356C10.0768 16.2481 10.1359 16.2734 10.038 16.2734C9.54067 16.2734 9.16416 15.919 8.94656 15.6263C8.52767 15.0629 8.51954 14.6225 8.41287 14.3838ZM6.1453 14.3838H7.2413C7.25257 14.8899 7.67267 15.8075 7.95936 16.2356C7.80923 16.2481 7.86833 16.2734 7.7704 16.2734C7.0917 16.2734 6.5833 15.6119 6.36612 15.07L6.1453 14.3838ZM12.2677 10.6045C12.5467 10.6045 12.813 10.7485 13.0126 10.9178C13.9324 11.698 13.895 13.0971 13.9684 13.25H10.5671C10.6416 13.0945 10.5927 11.744 11.5026 10.9354C11.7059 10.7547 11.9828 10.6045 12.2677 10.6045ZM9.43329 13.25H8.2995C8.34897 13.1469 8.34353 12.904 8.36346 12.7848C8.4346 12.3592 8.54532 11.9111 8.75446 11.5508C9.00813 11.1136 9.43532 10.6045 10.0002 10.6045C10.1425 10.6045 10.0716 10.6294 10.2269 10.6423C9.81022 11.2646 9.43329 12.2112 9.43329 13.25ZM7.16572 13.25H6.03193C6.0814 13.1469 6.07596 12.904 6.09589 12.7848C6.21203 12.0901 6.43544 11.4082 6.9675 10.9354C7.17079 10.7547 7.4477 10.6045 7.7326 10.6045C7.87493 10.6045 7.80406 10.6294 7.95936 10.6423C7.54264 11.2646 7.16572 12.2112 7.16572 13.25ZM4.89815 13.25H3.72656V8.33691H16.2738V13.25H15.1022C15.1022 11.5896 14.0296 9.4707 12.3811 9.4707C11.4131 9.4707 11.3211 9.75587 11.134 9.75585C11.0738 9.75585 10.2627 9.2563 9.33672 9.5631C8.58777 9.81122 9.17897 9.83307 8.41839 9.57857C7.28359 9.19884 6.25812 9.79557 5.63285 10.7345C5.24375 11.3188 4.89815 12.2916 4.89815 13.25ZM2.59277 7.69444V16.9159C2.59277 17.1476 2.85233 17.4072 3.08409 17.4072H16.9163C17.148 17.4072 17.4076 17.1476 17.4076 16.9159V7.69444C17.4076 7.46268 17.148 7.20312 16.9163 7.20312H3.08409C2.85233 7.20312 2.59277 7.46268 2.59277 7.69444Z" fill="#539580"/>
<path fill-rule="evenodd" clip-rule="evenodd" d="M2.59277 3.12216C2.59277 3.48909 2.77683 3.76465 3.08409 3.76465H4.36904C5.02154 3.76465 5.02154 2.63086 4.36904 2.63086H3.08409C2.85233 2.63086 2.59277 2.89042 2.59277 3.12216Z" fill="#539580"/>
<path fill-rule="evenodd" clip-rule="evenodd" d="M5.99414 3.12216C5.99414 3.48909 6.1782 3.76465 6.48545 3.76465H7.77041C8.42291 3.76465 8.42291 2.63086 7.77041 2.63086H6.48545C6.2537 2.63086 5.99414 2.89042 5.99414 3.12216Z" fill="#539580"/>
</svg>
