<svg width="20" height="20" viewBox="0 0 20 20" fill="none" xmlns="http://www.w3.org/2000/svg">
<path fill-rule="evenodd" clip-rule="evenodd" d="M3.41386 18.5511C3.37687 18.1067 3.2249 17.3792 3.2249 17.0016H11.237C10.8607 18.6168 11.4441 18.5514 10.4433 18.5511H3.41386ZM12.7664 0.334961H13.6932C14.4205 0.391032 15.1358 0.58089 15.7974 0.914376C16.1657 1.10005 16.4394 1.24598 16.7546 1.46885C17.6987 2.13636 18.2651 2.8726 18.783 3.90002C19.3439 5.01276 19.3624 5.87923 19.3624 7.09989H13.7691C13.6122 7.09989 13.6599 7.25228 13.639 7.42326L12.6521 15.0153C12.5747 15.5474 12.5036 16.0647 12.4464 16.5859L12.0807 19.3948C12.0638 19.5483 12.1114 19.6849 11.955 19.6849H2.39346L2.28007 18.8157C2.06572 16.887 1.72614 14.7295 1.4932 12.7998L1.04966 9.3507C0.964187 8.76316 0.911259 8.23766 0.828002 7.64493L0.617188 5.9283H7.00419C7.00419 5.56599 7.15309 5.03628 7.23883 4.72683C7.32217 4.42609 7.50774 3.97568 7.65444 3.70632C7.8432 3.35975 7.98074 3.12772 8.20807 2.8238C9.31807 1.3398 11.026 0.467747 12.7664 0.334961ZM2.28007 9.82098H12.144L11.3882 15.83H3.14932C2.98753 15.83 3.01789 15.5263 2.97172 15.1762L2.28007 9.82098ZM12.333 8.64939H2.1289C2.09166 8.20183 1.93994 7.5457 1.93994 7.09989H12.5219C12.4706 7.32007 12.4477 7.63617 12.4152 7.86239C12.3772 8.12665 12.333 8.36435 12.333 8.64939ZM17.1233 3.3868C17.2496 3.5708 17.3669 3.71488 17.485 3.91308C17.9945 4.76802 17.9865 5.05122 18.1909 5.9283H14.6005L17.1233 3.3868ZM9.19617 3.39619L11.7377 5.91893L8.17576 5.9283C8.17576 5.24799 8.61962 4.24245 9.01426 3.66779C9.09406 3.55158 9.1298 3.5216 9.19617 3.39619ZM13.7785 5.10623L13.7691 1.50655C15.1817 1.83563 15.1168 1.77158 16.3012 2.56475L13.7785 5.10623ZM10.0654 2.52695C10.1704 2.4989 10.2274 2.43236 10.3221 2.36796C10.6212 2.16468 10.854 2.02145 11.1991 1.88439C11.4086 1.8012 11.6072 1.71889 11.8412 1.65726C12.0873 1.59245 12.3445 1.56549 12.5975 1.50655V5.09686C12.4307 4.98516 12.1295 4.6477 11.9645 4.48273C11.7411 4.25933 11.5454 4.06363 11.322 3.84025C11.0993 3.6175 10.2125 2.8068 10.0654 2.52695Z" fill="#539580"/>
</svg>
