<svg width="19" height="24" viewBox="0 0 19 24" fill="none" xmlns="http://www.w3.org/2000/svg">
<path fill-rule="evenodd" clip-rule="evenodd" d="M9.03433 17.9414C9.03433 16.9459 9.05968 16.2953 9.49761 15.3542C9.69809 14.9234 10.1653 14.1829 10.5147 13.9489C10.6822 14.668 10.5707 14.9333 11.0463 15.8397C11.1127 15.9661 11.1745 16.0876 11.2512 16.218C11.4959 16.6338 11.7332 16.9203 12.0204 17.288C12.5091 17.9139 13.2326 18.608 13.547 19.3951C13.8787 20.2254 13.844 20.8117 13.5149 21.6145C13.4431 21.7897 13.0765 22.5171 12.8923 22.5171H8.27171C7.96086 22.5171 6.31816 20.9145 6.79133 18.8835L9.30349 19.7807C9.30349 19.3071 9.03433 18.7589 9.03433 17.9414ZM7.64366 17.7171L5.84926 17.0891C5.58121 18.2396 5.35581 18.1376 5.35581 19.7807C5.35581 21.3744 6.18654 22.2682 6.253 22.5171C5.31268 22.5171 5.5708 22.494 4.88127 21.9599L4.22107 21.3191C3.1425 20.03 2.60478 19.2724 2.24799 17.4156C1.88708 15.5373 2.42847 14.1481 2.4399 13.6348C2.60365 13.7134 2.79778 13.7775 2.99523 13.8421L5.90059 14.8844C6.10951 14.9628 6.28799 15.0059 6.50323 15.0893C6.7116 15.17 6.88856 15.2442 7.10534 15.2947C7.10534 15.0663 7.0343 14.8272 6.98945 14.6031C6.33267 11.32 6.95498 7.89824 8.96981 5.22637C9.47812 4.55228 10.3734 3.68243 11.053 3.22731L11.2516 5.63059C11.3718 6.34617 11.5751 7.07756 11.8455 7.63861C12.3146 8.61204 12.6292 9.21835 13.2896 10.0974C14.1222 11.2058 15.566 12.7496 16.2118 13.7247C16.9437 14.8299 17.6474 16.0979 17.6474 17.5377C17.6474 19.175 16.9652 20.8176 16.0906 21.9921C15.5702 22.691 15.576 22.5171 14.597 22.5171C15.5247 20.7639 15.2238 19.058 14.0076 17.5438C13.8771 17.3812 13.8139 17.2813 13.6662 17.1226C13.319 16.7496 12.5677 15.7883 12.3685 15.4147C11.8673 14.4744 12.001 14.3816 11.8864 13.609L11.7259 11.4815C11.2468 11.6095 9.92385 12.5883 9.44928 13.0629C9.34064 13.1715 9.2347 13.2633 9.13708 13.3787C8.11927 14.5821 7.64366 16.1122 7.64366 17.7171ZM5.35581 12.2442L5.41043 13.2305L2.51227 12.2167C2.2922 12.1398 1.73717 11.9015 1.5427 11.8853C1.48374 12.0082 1.45403 12.1634 1.41364 12.2946L1.03797 13.6684C0.549702 15.9482 0.710612 17.7993 1.61946 19.9282C2.0802 21.0074 3.01197 22.1332 3.88619 22.9101C4.10389 23.1035 5.01786 23.8629 5.22122 23.8629H16.1222C16.4007 23.8629 17.4468 22.4863 17.6454 22.1562C17.7831 21.9274 17.9324 21.6803 18.0515 21.4408C18.3024 20.9366 18.4923 20.4325 18.674 19.8652C19.1698 18.3173 19.1029 16.4161 18.4542 14.9365C18.1285 14.1934 17.872 13.7367 17.4316 13.0881C17.3275 12.9349 17.2536 12.8099 17.1417 12.6602L14.2311 9.06611C13.3567 7.88088 12.7316 6.50574 12.5449 5.0102C12.4175 3.98974 12.4403 2.55446 12.3217 1.64466C12.2951 1.44119 12.2642 1.11941 12.2642 0.939453C11.8292 0.949148 9.94995 2.35734 9.50165 2.70772L8.91057 3.23814C7.51282 4.65186 6.50825 6.25844 5.92251 8.23516C5.73728 8.86022 5.62422 9.41432 5.52179 10.1223C5.48336 10.3879 5.41548 10.8222 5.40058 11.1226L5.35581 12.2442Z" fill="#539580"/>
</svg>
