<svg width="18" height="16" viewBox="0 0 18 16" fill="none" xmlns="http://www.w3.org/2000/svg">
<path fill-rule="evenodd" clip-rule="evenodd" d="M1.54273 14.4778C1.54273 14.3786 1.57082 14.2888 1.69394 14.2888H16.2858C16.4969 14.2888 16.5191 14.6668 16.1724 14.6668H1.80734C1.67996 14.6668 1.54273 14.6 1.54273 14.4778ZM1.92076 10.8487V13.0413C1.4332 13.0413 1.08913 13.108 0.738002 13.4462C-0.266884 14.4141 0.650645 15.8765 1.58053 15.8765H16.3992C17.3175 15.8765 18.2371 14.4406 17.2608 13.465C16.9096 13.114 16.5588 13.0413 16.059 13.0413V10.8487C16.059 10.4527 15.7458 10.2061 15.3408 10.2061H12.7324C11.7407 10.2061 11.8352 11.4535 12.619 11.4535H14.8115V13.0413H9.59473V11.567C9.59473 11.2928 9.3325 11.0377 8.91429 11.0377C8.67822 11.0377 8.38505 11.3309 8.38505 11.567V13.0413H3.16824V11.4535H5.36082C6.15296 11.4535 6.23023 10.2061 5.2474 10.2061H2.63902C2.23394 10.2061 1.92076 10.4527 1.92076 10.8487Z" fill="#539580"/>
<path fill-rule="evenodd" clip-rule="evenodd" d="M6.57083 7.52205C6.51127 7.26642 6.1928 6.90271 6.1928 6.04775C6.1928 4.8714 7.04701 3.46124 7.80813 2.6731L8.99021 1.54921C9.04337 1.62175 9.35758 1.88611 9.44947 1.95941C9.78278 2.22532 10.4808 3.0319 10.7291 3.36374C11.533 4.4379 12.1491 5.85262 11.5723 7.19328C11.5195 7.3159 11.4782 7.35199 11.4474 7.48425H11.3718C11.3028 7.18814 10.9308 6.61239 10.735 6.34427C10.3725 5.84779 9.5561 4.98927 8.91461 4.98927C8.71044 4.98927 8.28878 5.31544 8.14656 5.43091C7.91576 5.6183 7.71737 5.79467 7.52701 6.02105C7.23564 6.36758 7.00637 6.70701 6.79701 7.10558C6.72625 7.24028 6.67717 7.44414 6.57083 7.52205ZM4.94531 5.89654C4.94531 7.15644 5.24528 7.86034 5.94361 8.75412C6.19111 9.0709 6.51713 9.48738 6.89675 9.43717C7.06118 9.41542 7.23093 9.31228 7.31338 9.20968C7.55817 8.90512 7.41341 8.2056 8.31474 6.9978C8.47335 6.78527 8.75795 6.47307 8.99021 6.35017C9.70213 6.72687 10.3384 7.96745 10.4992 8.77268C10.5708 9.1313 10.722 9.44157 11.145 9.44211C11.6322 9.44275 12.2414 8.5203 12.4612 8.15787C13.6425 6.21084 12.8367 4.13662 11.6364 2.53208C11.2805 2.05628 10.8934 1.66131 10.4741 1.23717L10.0019 0.802138C9.9204 0.726624 9.89316 0.722124 9.81304 0.650767C9.05146 -0.0276188 8.90681 -0.0115613 8.16984 0.615424C7.67081 1.03997 7.37475 1.37018 6.93885 1.80382C6.0403 2.69775 4.94531 4.53421 4.94531 5.89654Z" fill="#539580"/>
</svg>
