<svg width="20" height="18" viewBox="0 0 20 18" fill="none" xmlns="http://www.w3.org/2000/svg">
<path fill-rule="evenodd" clip-rule="evenodd" d="M1.44659 1.37403H18.5335V16.6464H1.44659V1.37403ZM0.3125 0.769191V17.2512C0.3125 17.5893 0.5864 17.8183 0.917343 17.8183H19.0627C19.4031 17.8183 19.6676 17.5953 19.6676 17.2512V0.769191C19.6676 0.419005 19.3701 0.202148 19.1383 0.202148H0.841743C0.720029 0.202148 0.553686 0.303062 0.479286 0.368919C0.378343 0.458277 0.3125 0.593234 0.3125 0.769191Z" fill="#539580"/>
<path fill-rule="evenodd" clip-rule="evenodd" d="M3.67677 6.85516C3.67677 5.8587 3.9114 5.24626 4.5934 4.55854C5.43708 3.7078 6.74707 3.48126 7.88397 3.97104C8.83123 4.37914 9.64961 5.4772 9.64961 6.51493C9.64961 7.29056 9.55864 7.77267 9.12858 8.41329C8.6594 9.1122 7.73704 9.69037 6.89001 9.69037H6.43637C5.53885 9.69037 4.63794 9.06003 4.21277 8.4361C3.92705 8.01682 3.67677 7.42173 3.67677 6.85516ZM2.50488 6.70395C2.50488 7.55479 2.79533 8.40409 3.23015 9.0407C4.36927 10.7084 6.53355 11.3475 8.42761 10.4719C10.858 9.34845 11.7492 6.03359 9.60798 3.79694C9.60261 3.79133 9.59485 3.78327 9.58935 3.77777C9.58385 3.77229 9.5758 3.76452 9.57018 3.75914C9.18184 3.38737 8.916 3.18132 8.38974 2.93604C8.15294 2.82569 7.90864 2.74325 7.63157 2.67353L6.69967 2.54395L5.78534 2.65065C4.97145 2.83709 4.33648 3.1897 3.76183 3.76477C2.98315 4.544 2.50488 5.51377 2.50488 6.70395Z" fill="#539580"/>
<path fill-rule="evenodd" clip-rule="evenodd" d="M14.4132 12.9413C13.8097 12.9413 13.3445 12.8744 12.8717 12.4036C12.8084 12.3405 12.7486 12.2504 12.6898 12.1697C11.9741 11.1855 12.3654 9.71309 13.5105 9.27907C15.5259 8.5152 16.9822 11.0009 15.6329 12.3465C15.3265 12.652 14.8923 12.9413 14.4132 12.9413ZM11.1621 11.0512C11.1621 14.1628 15.3958 15.3696 16.9718 12.4379C17.5118 11.4335 17.3512 10.1968 16.7124 9.24337C16.6078 9.08731 16.5014 9.00033 16.3695 8.86803C14.8644 7.35819 12.2933 7.85671 11.4267 9.80364C11.2857 10.1205 11.1621 10.5937 11.1621 11.0512Z" fill="#539580"/>
<path fill-rule="evenodd" clip-rule="evenodd" d="M14.2994 5.79744C12.824 5.79744 12.8382 3.71828 14.2994 3.71828C15.3433 3.71828 15.6365 5.261 14.7164 5.68517C14.6203 5.72944 14.4388 5.79744 14.2994 5.79744ZM12.0312 4.73895C12.0312 5.38521 12.32 5.94931 12.6445 6.28051C13.5065 7.16041 14.9178 7.1712 15.7081 6.3745C16.2641 5.81403 16.4164 5.45077 16.4164 4.62555C16.4164 3.46853 15.2214 2.47508 14.1964 2.55643C13.627 2.60161 13.0782 2.80068 12.6818 3.197C12.3018 3.5771 12.0312 4.1637 12.0312 4.73895Z" fill="#539580"/>
<path fill-rule="evenodd" clip-rule="evenodd" d="M5.75587 6.77979C5.75587 5.73465 6.8092 5.59294 7.29593 6.03359C7.85348 6.53838 7.50813 7.61146 6.77654 7.61146H6.54973C6.14456 7.61146 5.75587 7.18276 5.75587 6.77979ZM4.58398 6.70419C4.58398 7.83805 5.5238 8.78335 6.66313 8.78335C8.88334 8.78335 9.5342 5.76345 7.52056 4.82609C6.83077 4.50499 6.1063 4.60389 5.49264 5.00445C4.95038 5.35841 4.58398 6.05385 4.58398 6.70419Z" fill="#539580"/>
<path fill-rule="evenodd" clip-rule="evenodd" d="M9.53607 15.7012C10.0685 15.7012 11.1994 15.8606 11.1994 15.1341C11.1994 14.7925 10.9362 14.5293 10.5945 14.5293H9.34706C8.76093 14.5293 8.54022 15.2692 9.01086 15.5837C9.13886 15.6693 9.32659 15.7012 9.53607 15.7012Z" fill="#539580"/>
<path fill-rule="evenodd" clip-rule="evenodd" d="M2.58105 15.0588C2.58105 15.7969 3.75294 15.8105 3.75294 15.0588C3.75294 14.3192 2.58105 14.2927 2.58105 15.0588Z" fill="#539580"/>
<path fill-rule="evenodd" clip-rule="evenodd" d="M2.58105 13.0933C2.58105 13.8438 3.75294 13.8438 3.75294 13.0933C3.75294 12.3478 2.58105 12.3478 2.58105 13.0933Z" fill="#539580"/>
<path fill-rule="evenodd" clip-rule="evenodd" d="M4.62207 13.0554C4.62207 13.8996 5.7766 13.8221 5.77717 13.093C5.77756 12.5859 5.15468 12.3486 4.80338 12.6697C4.73247 12.7345 4.62207 12.9308 4.62207 13.0554Z" fill="#539580"/>
<path fill-rule="evenodd" clip-rule="evenodd" d="M4.62207 15.0212C4.62207 15.8486 5.77658 15.7985 5.77717 15.0588C5.77756 14.5518 5.15468 14.3144 4.80338 14.6355C4.73247 14.7003 4.62207 14.8967 4.62207 15.0212Z" fill="#539580"/>
</svg>
