<svg width="25" height="20" viewBox="0 0 25 20" fill="none" xmlns="http://www.w3.org/2000/svg">
<path fill-rule="evenodd" clip-rule="evenodd" d="M24.0255 6.37997V7.01741C24.0047 7.48101 23.9372 7.93219 23.8188 8.34366C23.3968 9.81179 22.9358 10.4598 21.994 11.5867L19.0403 14.4048C18.939 14.4988 18.9056 14.5039 18.8055 14.5923L14.0035 18.706C13.7022 18.9441 13.4637 19.1729 13.1594 19.4105C12.9528 19.5718 12.4948 20 12.2005 20C11.4401 20 11.5524 19.9583 10.8464 19.3834L9.76725 18.4915C9.6781 18.4195 9.65272 18.4049 9.56064 18.3228L5.38376 14.7571C5.30959 14.6851 5.27458 14.6374 5.19481 14.5705L3.74242 13.2545C3.6728 13.1843 3.62815 13.1323 3.55252 13.069C3.0757 12.6705 3.00821 12.5676 2.56921 12.1284C2.42501 11.9842 2.31208 11.8747 2.16935 11.7305C2.0253 11.5849 1.97144 11.4817 1.81802 11.331L1.14569 10.4549C0.285198 9.0438 0 8.10429 0 6.34496C0 5.43956 0.316068 4.39744 0.625166 3.77909C0.993877 3.04142 1.38491 2.49789 1.93562 1.9457C2.53525 1.34447 3.03562 1.02828 3.78518 0.651283C5.67387 -0.298473 8.13902 -0.190756 9.95047 0.852279C11.4011 1.68737 11.494 2.19655 12.0128 2.544C12.5319 2.19628 12.6228 1.68898 14.0751 0.852279C15.2522 0.174064 16.2097 0.0100932 17.6438 0.0100932C19.2634 0.0100932 20.961 0.816741 22.0899 1.9457C22.648 2.50377 23.0527 3.07269 23.4163 3.81022C23.7712 4.5304 23.985 5.45573 24.0255 6.37997Z" fill="#FF9494"/>
<path fill-rule="evenodd" clip-rule="evenodd" d="M2.15854 6.81416C2.15854 5.3603 2.51041 4.42684 3.50762 3.42375C4.06756 2.86059 4.76141 2.48 5.55509 2.28047C7.44822 1.80432 8.98693 2.54441 10.1945 3.75236L11.2728 4.83243C11.6709 5.20942 12.3425 5.25179 12.7761 4.80891L14.4177 3.21273C15.6014 2.1058 17.713 1.83439 19.2708 2.55937C20.7352 3.2408 21.867 4.7747 21.867 6.43876C21.867 7.48997 21.7672 7.94487 21.3198 8.84773C20.8937 9.70756 19.6461 10.9743 18.9221 11.6119L12.7366 16.9699C12.4777 17.1734 12.2763 17.3835 12.0128 17.5599L8.18483 14.3492C8.04652 14.2416 7.9698 14.16 7.82948 14.0476C7.36028 13.6717 6.22876 12.5752 5.79163 12.2376C5.65171 12.1296 5.57567 12.039 5.45527 11.917C5.31455 11.7745 5.24451 11.7361 5.1034 11.6119C4.37947 10.9743 3.13182 9.70756 2.70578 8.84773C2.42287 8.27657 2.15854 7.63884 2.15854 6.81416ZM24.0255 6.37997V7.01742C24.0047 7.48101 23.9372 7.93218 23.8188 8.34366C23.3968 9.8118 22.9358 10.4598 21.994 11.5867L19.0403 14.4048C18.939 14.4988 18.9056 14.5038 18.8055 14.5923L14.0035 18.706C13.7022 18.9441 13.4637 19.1729 13.1594 19.4105C12.9528 19.5718 12.4948 20 12.2005 20C11.4401 20 11.5524 19.9583 10.8464 19.3834L9.76725 18.4915C9.6781 18.4195 9.65272 18.4049 9.56064 18.3228L5.38376 14.7571C5.30959 14.6851 5.27458 14.6374 5.19481 14.5705L3.74242 13.2545C3.6728 13.1843 3.62816 13.1323 3.55252 13.069C3.07569 12.6705 3.00821 12.5676 2.56921 12.1284C2.42501 11.9842 2.31208 11.8747 2.16935 11.7305C2.02529 11.5849 1.97144 11.4818 1.81802 11.331L1.14569 10.4549C0.285186 9.04379 0 8.10431 0 6.34496C0 5.43955 0.316064 4.39744 0.625166 3.77909C0.993882 3.04142 1.3849 2.4979 1.93562 1.9457C2.53526 1.34447 3.03561 1.02828 3.78518 0.651284C5.67389 -0.298483 8.13899 -0.190767 9.95047 0.852279C11.4011 1.68738 11.494 2.19655 12.0128 2.544C12.532 2.19628 12.6228 1.68898 14.0751 0.852279C15.2522 0.174057 16.2097 0.0100936 17.6438 0.0100936C19.2635 0.0100936 20.9609 0.816729 22.0899 1.9457C22.648 2.50378 23.0526 3.07268 23.4163 3.81023C23.7712 4.53041 23.985 5.45572 24.0255 6.37997Z" fill="white"/>
</svg>
