<?xml version="1.0" encoding="utf-8"?>
<!-- Generator: Adobe Illustrator 26.0.1, SVG Export Plug-In . SVG Version: 6.00 Build 0)  -->
<svg version="1.1" id="Слой_1" xmlns="http://www.w3.org/2000/svg" xmlns:xlink="http://www.w3.org/1999/xlink" x="0px" y="0px"
	 viewBox="0 0 121.1 121" style="enable-background:new 0 0 121.1 121;" xml:space="preserve">
<style type="text/css">
	.st0{fill:#FFFFFF;}
</style>
<g>
	<path class="st0" d="M120,30.8c1.4,19.5,1.5,38.9,0,58.4c-1.3,17.6-13.2,29.4-30.8,30.8c-18.8,1.4-37.6,1.4-56.4,0.1
		c-19.7-1.4-32-13.9-32.5-33.6c-0.4-17.5-0.4-35,0-52.5c0.5-20.2,14-33.3,34.4-33.8c8.6-0.2,17.3,0,26,0C71.3,0.4,82-0.8,92.6,1
		C108.1,3.6,118.9,15.1,120,30.8z M110.1,60.2c0-8.3,0.3-16.7-0.1-25c-0.7-14.4-8.2-23.3-20.9-24.2c-19.3-1.3-38.6-1.5-57.9,0
		C19.6,11.9,11.8,20.4,11,32.1c-1.3,18.8-1.2,37.6,0,56.4c0.7,11.3,7.9,19.2,19.3,20.7c15.3,2,30.6,0.6,45.9,0.9
		c4.8,0.1,9.6,0,14.4-0.9c10.4-1.9,16.6-7.8,18.6-18.1C111.2,80.8,109.7,70.5,110.1,60.2z"/>
	<path class="st0" d="M92.9,21c3.7,0,7,3.3,7,6.9c-0.1,3.7-3.3,6.9-7,7c-4.1,0.1-7.1-3.1-7.1-7.2C85.9,23.7,88.8,21,92.9,21z"/>
	<path class="st0" d="M60.6,29.3c17.1,0.2,30.7,14.1,30.5,31.5c-0.2,17.1-13.7,30.4-31,30.3c-17-0.1-30.8-13.9-30.8-30.8
		C29.4,43.2,43.6,29.1,60.6,29.3z M60.1,80.8c11.2,0.1,20.9-9.5,20.8-20.6c-0.1-11.1-9.3-20.3-20.4-20.4
		c-11.6-0.1-20.6,8.8-20.6,20.4C39.9,71.4,49.1,80.8,60.1,80.8z"/>
</g>
</svg>
