<svg width="30" height="30" viewBox="0 0 30 30" fill="none" xmlns="http://www.w3.org/2000/svg">
<path fill-rule="evenodd" clip-rule="evenodd" d="M11.9657 15.8973C12.2299 16.0741 12.7612 16.7372 13.1404 17.021C14.0768 17.7216 15.471 17.8582 16.4751 17.2616C16.6216 17.1746 16.6994 17.1114 16.837 17.0186C17.2479 16.7415 17.6336 16.1519 18.0139 15.8973L23.2153 21.0584H6.76435L11.2904 16.5525C11.4664 16.3765 11.7878 16.0164 11.9657 15.8973ZM18.9009 15.0102C19.0218 14.8297 19.3603 14.5307 19.536 14.355L20.0202 13.8715C20.1003 13.8009 20.1208 13.8003 20.201 13.7297C20.6907 13.2985 22.1983 11.733 22.7818 11.1495C23.0067 10.9246 23.2021 10.7292 23.427 10.5044C23.603 10.3283 23.9244 9.9683 24.1023 9.84914V20.1713C23.9301 20.056 21.721 17.8101 21.5117 17.6008C21.3973 17.4865 21.3067 17.3861 21.1897 17.2778C20.745 16.8665 19.1138 15.328 18.9009 15.0102ZM5.87729 20.1713V9.84914L7.17763 11.1293C7.90723 11.8589 9.06462 13.0693 9.75768 13.7104C10.1229 14.0482 10.8487 14.6668 11.0787 15.0102C10.9578 15.1907 10.6194 15.4897 10.4436 15.6654C9.87619 16.2329 9.40515 16.7352 8.81095 17.2584L7.19781 18.8709C6.97291 19.0958 6.77756 19.2912 6.55266 19.5161C6.37665 19.6921 6.05525 20.0521 5.87729 20.1713ZM6.76435 8.96207H23.2153C23.0235 9.24854 20.721 11.4362 20.2819 11.8753L16.351 15.8069C16.1878 15.972 16.0095 16.117 15.7973 16.2209C14.3773 16.9165 13.5335 15.7111 12.6613 14.8389L8.99129 11.2108C8.64019 10.8634 6.88022 9.13511 6.76435 8.96207ZM4.66766 9.44593V20.5745C4.66766 21.4176 5.52059 22.268 6.36115 22.268H23.6185C24.459 22.268 25.312 21.4176 25.312 20.5745V9.44593C25.312 8.6024 24.462 7.75244 23.6185 7.75244H6.36115C5.52059 7.75244 4.66766 8.60286 4.66766 9.44593Z" fill="white"/>
</svg>
