<svg width="18" height="20" viewBox="0 0 18 20" fill="none" xmlns="http://www.w3.org/2000/svg">
<path fill-rule="evenodd" clip-rule="evenodd" d="M2.07301 14.5451L4.18769 13.3718C4.30275 13.3054 4.41808 13.2385 4.54548 13.1627C4.68573 13.0792 4.78063 13.0427 4.90746 12.9578C5.03386 12.9872 5.06541 13.017 5.16501 13.0782L5.91489 13.4998C6.09183 13.5965 6.25865 13.6937 6.42089 13.7875L8.43423 14.911C9.05395 15.2552 8.98732 15.2615 10.0312 14.6424C10.2337 14.5222 12.8961 12.9984 13.0707 12.9578C13.1902 13.0378 13.2842 13.0764 13.4091 13.1484C13.5242 13.2148 13.6395 13.2817 13.7669 13.3575C13.8932 13.4327 13.98 13.4706 14.1071 13.5465C14.2359 13.6234 14.3539 13.6819 14.471 13.7495L15.9052 14.5451C15.799 14.6901 12.8193 16.3034 12.4643 16.5086L9.87131 17.9594C8.76509 18.5639 9.22426 18.5838 8.13151 17.9726C7.97015 17.8823 7.85532 17.8223 7.69211 17.7317L3.79891 15.5402C3.63376 15.4522 3.51212 15.3867 3.35992 15.299L2.27312 14.6851C2.15019 14.618 2.14792 14.6473 2.07301 14.5451ZM8.92148 0.334961H9.06692C9.16065 0.34839 9.26433 0.388261 9.38898 0.464176C10.071 0.879633 11.1233 1.42422 11.8594 1.84863L12.9703 2.47618C13.1592 2.57942 13.3178 2.66537 13.5024 2.77553C14.6565 3.46433 16.2814 4.27545 17.3783 4.9465C17.7627 5.18165 17.7894 5.66792 17.4237 5.93515C17.3508 5.98845 17.2655 6.02259 17.1829 6.07226L14.91 7.35188C14.8183 7.40076 14.7724 7.41975 14.6885 7.47049C14.5797 7.5363 14.3576 7.6777 14.2423 7.70458C14.3261 7.8189 14.9662 8.14942 15.1377 8.24532L16.9759 9.2793C17.1432 9.3685 17.2802 9.4352 17.4341 9.53919C17.7662 9.7636 17.7662 10.2563 17.4341 10.4807C17.2802 10.5847 17.1432 10.6514 16.9759 10.7406C16.4178 11.0383 15.6635 11.5063 15.1366 11.7735C14.9788 11.8536 14.3176 12.2124 14.2423 12.3153C14.3655 12.344 14.5907 12.4918 14.7118 12.5639C14.806 12.62 14.8733 12.6456 14.9586 12.6949C15.0387 12.7412 15.0717 12.7672 15.1744 12.8193C15.7502 13.1113 16.4381 13.5601 17.0139 13.8521C17.1298 13.9109 17.3805 14.0453 17.4654 14.1186C17.7983 14.4061 17.7493 14.872 17.3293 15.0999L10.1868 19.1064C9.99351 19.2145 9.81685 19.32 9.63158 19.4203C9.27318 19.6145 9.28165 19.6849 8.91351 19.6849C8.73518 19.6849 7.45424 18.9201 7.21086 18.7798L1.15873 15.3837C0.971692 15.2708 0.780406 15.1838 0.599892 15.0734C0.433964 14.9719 0.296735 14.8136 0.296735 14.5451C0.296735 14.1619 0.700921 13.9894 1.01501 13.8272L1.90885 13.3227C2.22823 13.1482 2.51586 12.9686 2.82906 12.8068C3.01888 12.7088 3.60646 12.3454 3.73589 12.3153C3.64049 12.1851 3.45439 12.1277 3.29832 12.0348L1.00224 10.7406C0.834535 10.6511 0.698706 10.5848 0.54392 10.4808C0.233206 10.2721 0.193778 9.77586 0.544063 9.53919C0.957821 9.25962 2.65575 8.36752 3.29832 7.98506C3.45439 7.89217 3.64049 7.83476 3.73589 7.70458L0.964306 6.16776C0.621449 5.99388 0.296735 5.84638 0.296735 5.437C0.296735 5.19013 0.475663 5.01396 0.64892 4.91995L4.49903 2.761C5.29766 2.27578 6.45173 1.6982 7.25785 1.21143C7.43665 1.10346 7.60432 1.01813 7.79138 0.913504C7.98116 0.807347 8.16388 0.693561 8.34641 0.599304C8.58442 0.47639 8.74438 0.360632 8.92148 0.334961ZM2.07301 9.97215C2.25903 9.9288 4.24692 8.77805 4.63128 8.56213C4.71058 8.51758 4.75252 8.49086 4.82474 8.44879C4.92802 8.38863 4.91925 8.38299 5.03262 8.44387C5.12631 8.4942 5.15102 8.52415 5.24738 8.574L6.72324 9.40353C6.86939 9.48803 7.00579 9.55959 7.16206 9.64498C7.47389 9.81538 8.74852 10.5768 8.91351 10.5768C9.26356 10.5768 9.19231 10.5502 9.50616 10.3758L12.8983 8.47378C13.0123 8.4026 13.019 8.38628 13.1084 8.42242C13.1355 8.43335 13.2594 8.51425 13.3223 8.54892C13.6143 8.70996 13.8924 8.86609 14.1687 9.02536L15.4517 9.74539C15.5957 9.82338 15.7312 9.9316 15.9052 9.97215V10.0477C15.76 10.0815 15.1963 10.4114 15.0376 10.5029L12.4535 11.9626C11.3295 12.562 10.0859 13.3222 8.98909 13.9026C7.93626 13.3455 6.58858 12.5118 5.54974 11.9754C5.42028 11.9085 5.27363 11.821 5.14155 11.7411L2.52652 10.2745C2.38252 10.1965 2.24699 10.0883 2.07301 10.0477V9.97215ZM8.98909 1.58213L10.2861 2.28816C12.1112 3.30175 14.1101 4.48713 15.9052 5.437C15.836 5.53138 15.6322 5.62635 15.5147 5.68899C15.3495 5.77705 15.2279 5.8425 15.0757 5.93026C14.7955 6.0918 14.4942 6.2697 14.2043 6.4194L9.87131 8.85133C8.76509 9.45583 9.22426 9.47573 8.13151 8.86449C7.97015 8.77423 7.85532 8.71428 7.69211 8.62363L5.97732 7.65512C5.81595 7.56486 5.70112 7.5049 5.53791 7.41426C4.40182 6.78332 3.21222 6.07759 2.07301 5.47479C2.17922 5.3298 5.15889 3.71645 5.51386 3.51128L6.36544 3.0401C6.66565 2.8614 6.93371 2.72706 7.23452 2.54865L8.98909 1.58213Z" fill="#539580"/>
<path fill-rule="evenodd" clip-rule="evenodd" d="M4.26465 9.85918C4.26465 10.7605 5.39843 10.5879 5.39843 10.0103V9.82139C5.39843 9.56985 5.08495 9.33008 4.83153 9.33008C4.56586 9.33008 4.26465 9.59988 4.26465 9.85918Z" fill="#539580"/>
<path fill-rule="evenodd" clip-rule="evenodd" d="M12.5793 9.82139C12.5793 10.0165 12.5663 10.1935 12.7611 10.3576C13.1018 10.6446 13.7131 10.4837 13.7131 9.85918C13.7131 9.59988 13.4118 9.33008 13.1462 9.33008C12.8928 9.33008 12.5793 9.56985 12.5793 9.82139Z" fill="#539580"/>
<path fill-rule="evenodd" clip-rule="evenodd" d="M8.42188 11.9751C8.42188 12.858 9.55566 12.8236 9.55566 11.9751C9.55566 11.3156 8.42188 11.3156 8.42188 11.9751Z" fill="#539580"/>
<path fill-rule="evenodd" clip-rule="evenodd" d="M10.501 10.8795C10.501 11.7889 11.6348 11.6758 11.6348 10.9551C11.6348 10.1612 10.501 10.2612 10.501 10.8795Z" fill="#539580"/>
<path fill-rule="evenodd" clip-rule="evenodd" d="M6.34375 10.9551C6.34375 11.6758 7.47753 11.7889 7.47753 10.8795C7.47753 10.2612 6.34375 10.1612 6.34375 10.9551Z" fill="#539580"/>
</svg>
