<svg width="21" height="21" viewBox="0 0 21 21" fill="none" xmlns="http://www.w3.org/2000/svg">
<path fill-rule="evenodd" clip-rule="evenodd" d="M6.04638 5.16747C10.8469 0.366926 16.9215 -1.3417 19.6143 1.35108C22.3071 4.04391 20.5984 10.1185 15.7979 14.919C10.9974 19.7195 4.92282 21.4282 2.22999 18.7354C-0.462796 16.0426 1.24583 9.96801 6.04638 5.16747ZM6.85753 5.97863C4.94147 7.8947 3.17336 10.4185 2.43248 13.0524C2.00132 14.5853 1.80643 16.6895 3.04115 17.9242C4.27588 19.1589 6.38007 18.9641 7.91293 18.5329C10.5469 17.792 13.0707 16.0239 14.9867 14.1078C16.9028 12.1918 18.6709 9.66798 19.4118 7.03403C19.843 5.50117 20.0378 3.39697 18.8031 2.16224C17.5684 0.927527 15.4642 1.12241 13.9313 1.55357C11.2974 2.29445 8.7736 4.06257 6.85753 5.97863Z" fill="#539580"/>
</svg>
