<svg width="20" height="22" viewBox="0 0 20 22" fill="none" xmlns="http://www.w3.org/2000/svg">
<path fill-rule="evenodd" clip-rule="evenodd" d="M2.03672 17.653L1.96864 5.84902H17.9434L18.0114 17.653C18.0114 17.9893 17.713 18.3252 17.3729 18.3252H2.67529C2.33515 18.3252 2.03672 17.9893 2.03672 17.653ZM7.69315 10.152H11.7263C12.8802 10.152 12.8802 8.67319 11.7263 8.67319H7.69315C6.53918 8.67319 6.53918 10.152 7.69315 10.152ZM4.11964 8.00002H15.7924L15.8605 16.1742H4.18772L4.11964 8.00002ZM2.67444 7.19339L2.74252 16.9808C2.74252 17.3922 3.13948 17.653 3.54914 17.653H16.499C16.7213 17.653 16.9243 17.5752 17.058 17.4726C17.1816 17.3777 17.3056 17.1864 17.3056 16.9808L17.2376 7.19339C17.2376 6.988 17.1136 6.79617 16.9898 6.70172C16.8312 6.58066 16.6637 6.5212 16.3973 6.5212H3.51468C3.06327 6.5212 2.67444 6.77529 2.67444 7.19339ZM1.96864 2.92502C1.96864 2.57712 2.29294 2.25282 2.64084 2.25282H17.2712C17.6191 2.25282 17.9434 2.57712 17.9434 2.92502V4.3702H1.96864V2.92502ZM0.523438 2.82417L0.591523 17.7538C0.591523 18.047 0.700338 18.3779 0.803538 18.5837C0.865066 18.7064 0.922852 18.7978 0.994537 18.8968C1.39105 19.4444 2.03708 19.7883 2.74252 19.804V20.5434C2.74252 21.4341 4.18772 21.4502 4.18772 20.5098V19.804H15.8605V20.5098C15.8605 21.4568 17.3056 21.4286 17.3056 20.5434V19.804C18.4566 19.7783 19.4566 18.8358 19.4566 17.7538L19.3885 2.82417C19.3885 1.80925 18.3869 0.807617 17.372 0.807617H2.53999C1.52507 0.807617 0.523438 1.80925 0.523438 2.82417Z" fill="#539580"/>
</svg>
