<svg width="22" height="24" viewBox="0 0 22 24" fill="none" xmlns="http://www.w3.org/2000/svg">
<path fill-rule="evenodd" clip-rule="evenodd" d="M15.7803 8.58844H17.1491C17.1491 9.85174 17.5471 11.2363 18.122 12.315L19.0474 13.7622C19.6716 14.6859 19.8294 15.9091 19.8885 17.0307C19.9007 17.2635 19.8453 17.3606 19.8402 17.5759C19.8218 18.346 19.6423 18.971 19.4362 19.5446C19.2338 20.1081 18.9237 20.6448 18.609 21.0899C18.4665 21.2914 17.6824 22.322 17.4685 22.322H15.4609C15.2501 22.322 14.4917 21.327 14.3394 21.1165C13.1998 19.5412 12.7966 17.5103 13.2057 15.4585C13.3951 14.5085 13.6748 14.1152 14.1011 13.4338C14.9499 12.0767 15.4054 11.5062 15.6758 9.67025C15.7204 9.36794 15.7803 8.89055 15.7803 8.58844ZM2.45743 16.1168C2.45743 16.0507 2.76086 15.793 2.82245 15.7518L5.54889 18.4549L8.28648 15.7406L11.0241 18.4549C11.2595 18.2935 11.4572 17.9206 11.7196 17.8506C11.7196 18.3439 11.8304 18.8943 11.9421 19.2706C12.2187 20.2029 12.3528 20.1328 12.1129 20.479C11.8072 20.92 11.1575 21.8312 10.7624 22.2316C10.6997 22.2951 10.7645 22.322 10.6245 22.322H5.8794C5.7429 22.322 5.79138 22.2857 5.72095 22.2067L4.79129 21.0375C4.38188 20.4838 4.1771 20.1296 3.84062 19.57C3.54106 19.0718 3.27749 18.5093 3.03775 17.9546C2.9018 17.6401 2.45743 16.4688 2.45743 16.1168ZM11.0352 16.4818L8.30872 13.7787L5.57115 16.4929L2.83356 13.7787L2.1483 14.4389C2.11749 13.4097 2.09249 13.7446 2.1379 12.7859C2.22738 10.8972 3.34073 10.5678 4.11103 9.87702C4.20809 9.79001 4.2362 9.74306 4.34738 9.65711C4.56285 9.49047 4.61466 9.42288 4.77799 9.22082C4.85316 9.12782 4.89738 9.09718 4.96756 8.99975C5.27519 8.57265 5.54793 8.05926 5.72646 7.52298C5.86928 7.09402 5.99432 6.55156 6.05989 6.07698L6.19879 4.43644H10.3051C10.3051 5.80096 10.6182 7.46579 11.2651 8.58666C12.048 9.94325 13.2747 10.2635 13.864 11.1435C13.8569 11.1517 13.8467 11.1543 13.844 11.1691L12.7141 13.005C11.6983 14.5048 11.9704 15.5802 11.5725 15.9698C11.3945 16.1441 11.2339 16.3487 11.0352 16.4818ZM14.8678 5.80522H18.0616C18.0197 5.98531 17.4727 7.00548 17.4228 7.21965H15.5065C15.4713 7.06818 15.4217 7.00952 15.354 6.87031L14.9425 6.00422C14.9036 5.92176 14.8934 5.86269 14.8678 5.80522ZM5.26992 1.70699L11.2177 1.69886L10.5626 3.05955L5.92503 3.06765L5.26992 1.70699ZM0.723633 13.1511C0.723633 15.1725 0.975304 16.49 1.66815 18.2749C2.22148 19.7004 3.03933 21.0699 3.96259 22.2768L4.7952 23.2693C4.88522 23.3666 5.1561 23.6907 5.28626 23.6907H11.2177C11.3469 23.6907 11.6426 23.3455 11.7306 23.2455L12.5999 22.1985C12.7253 22.031 12.8938 21.7373 13.0427 21.6376C13.1425 22.0114 14.6733 23.6907 14.8678 23.6907H18.0616C18.2259 23.6907 19.0902 22.7066 19.2338 22.536C20.3662 21.1904 21.2555 19.4353 21.2555 17.4399C21.2555 15.6117 21.1809 14.8281 20.3892 13.2873C20.281 13.0767 20.1395 12.8902 20.0043 12.6684C19.5437 11.913 19.2287 11.61 18.8999 10.6246C18.7368 10.1355 18.3966 8.35545 18.5745 7.96374L19.9627 5.15126C20.0601 4.95656 20.253 4.62656 20.2973 4.43644H12.6321C12.6868 4.67134 14.1272 7.46201 14.3549 7.96374C14.4371 8.14476 14.3667 8.43814 14.3673 8.72674C14.3678 8.96342 14.3198 9.35274 14.2746 9.54659C13.7047 9.16496 12.867 8.46062 12.5129 7.93202C11.9153 7.04005 11.758 5.70049 11.721 4.48058C11.7096 4.10342 11.5872 4.09374 11.7633 3.75018C11.9838 3.31984 13.4024 0.548692 13.4534 0.330078H3.05058C3.09286 0.511607 3.68003 1.63464 3.811 1.89658C4.0786 2.43178 4.31905 2.91272 4.58666 3.44788C4.76882 3.81215 4.86546 3.83542 4.79716 4.31171C4.65948 5.27185 4.86406 5.93541 4.28965 7.36368C4.16392 7.67629 4.05465 7.83466 3.88162 8.09632C3.37693 8.85954 2.46293 9.21289 1.89606 9.89774C1.56786 10.2943 1.30536 10.5155 1.08225 11.1371C0.878733 11.7042 0.723633 12.3705 0.723633 13.1511Z" fill="#539580"/>
<path fill-rule="evenodd" clip-rule="evenodd" d="M4.54492 13.4132L5.50308 14.3937L6.48352 13.4355L5.52536 12.4551L4.54492 13.4132Z" fill="#539580"/>
<path fill-rule="evenodd" clip-rule="evenodd" d="M7.28223 18.8888L8.24038 19.8692L9.22081 18.9111L8.26266 17.9307L7.28223 18.8888Z" fill="#539580"/>
<path fill-rule="evenodd" clip-rule="evenodd" d="M10.0205 13.4132L10.9787 14.3937L11.9591 13.4355L11.0009 12.4551L10.0205 13.4132Z" fill="#539580"/>
</svg>
