<svg width="29" height="29" viewBox="0 0 29 29" fill="none" xmlns="http://www.w3.org/2000/svg">
<path fill-rule="evenodd" clip-rule="evenodd" d="M28.6621 14.2815C28.659 22.1483 22.2595 28.5493 14.3911 28.5525H14.3852C11.9967 28.5517 9.6498 27.9524 7.56535 26.8155L0 28.8L2.02461 21.4048C0.775733 19.2405 0.118579 16.7855 0.11965 14.2702C0.12278 6.40169 6.52482 0 14.3909 0C18.2086 0.00164768 21.7918 1.48787 24.4862 4.18541C27.1806 6.88282 28.6637 10.4683 28.6621 14.2815ZM3.42648 25.4095L7.91586 24.2319L8.349 24.4889C10.1702 25.5697 12.2578 26.1415 14.3863 26.1423H14.3911C20.9288 26.1423 26.2499 20.8211 26.2525 14.2807C26.2538 11.1112 25.0212 8.13108 22.7817 5.88898C20.5422 3.64689 17.564 2.41153 14.3957 2.41043C7.85292 2.41043 2.53177 7.7311 2.52918 14.2711C2.52826 16.5124 3.15537 18.6951 4.34273 20.5836L4.62476 21.0324L3.42648 25.4095Z" fill="white"/>
<path d="M21.5808 17.6751C21.4917 17.5264 21.254 17.4371 20.8974 17.2586C20.5408 17.0801 18.7877 16.2176 18.4607 16.0984C18.134 15.9795 17.8961 15.9201 17.6585 16.2769C17.4208 16.6339 16.7374 17.4371 16.5294 17.6751C16.3214 17.913 16.1133 17.9429 15.7569 17.7644C15.4003 17.5859 14.2513 17.2094 12.8893 15.9945C11.8292 15.0489 11.1135 13.8812 10.9055 13.5242C10.6975 13.1672 10.8834 12.9743 11.0619 12.7965C11.2223 12.6367 11.4185 12.3799 11.5968 12.1718C11.775 11.9636 11.8345 11.8148 11.9533 11.577C12.0722 11.3389 12.0128 11.1307 11.9236 10.9522C11.8345 10.7737 11.1213 9.0185 10.8242 8.3045C10.5347 7.60917 10.2408 7.70337 10.0219 7.69238C9.81413 7.68195 9.57615 7.67975 9.33845 7.67975C9.10075 7.67975 8.7144 7.769 8.38756 8.126C8.06071 8.483 7.13953 9.3457 7.13953 11.1008C7.13953 12.856 8.41726 14.5516 8.59556 14.7895C8.77384 15.0276 11.11 18.6293 14.6871 20.1739C15.5379 20.5413 16.202 20.7607 16.72 20.925C17.5742 21.1965 18.3516 21.1582 18.9659 21.0663C19.6511 20.964 21.0756 20.2038 21.3729 19.3708C21.6699 18.5378 21.6699 17.8238 21.5808 17.6751Z" fill="white"/>
</svg>
