<svg width="20" height="16" viewBox="0 0 20 16" fill="none" xmlns="http://www.w3.org/2000/svg">
<path fill-rule="evenodd" clip-rule="evenodd" d="M1.44824 12.9785H18.5306V14.1123H1.44824V12.9785ZM1.44824 8.44336H2.58202V10.7109H3.75361V8.44336H4.8496V9.57714H6.02118V8.44336H7.11717V10.7109H8.28875V8.44336H9.42254V9.57714H10.5563V8.44336H11.6901V10.7109H12.8617V8.44336H13.9577V9.57714H15.1293V8.44336H16.2253V10.7109H17.3968V8.44336H18.5306V11.8447H1.44824V8.44336ZM0.314453 15.2461H19.6644V7.30957H0.314453V15.2461Z" fill="#539580"/>
<path fill-rule="evenodd" clip-rule="evenodd" d="M0.314453 4.17577H1.44824V3.04199H18.5306V4.17577H19.6644V0.774414H18.5306V1.9082H1.44824V0.774414H0.314453V4.17577Z" fill="#539580"/>
</svg>
