<svg width="19" height="19" viewBox="0 0 19 19" fill="none" xmlns="http://www.w3.org/2000/svg">
<path fill-rule="evenodd" clip-rule="evenodd" d="M12.2896 15.7369C12.2896 14.8266 12.9751 14.0721 13.8078 13.7851C14.2409 13.6359 14.7106 13.6131 15.1523 13.7399C15.6648 13.8871 16.0795 14.2147 16.3899 14.643C16.8429 15.2678 16.8857 16.2165 16.5495 16.903C16.2212 17.5733 15.6017 18.0193 14.8648 18.1281C14.1608 18.2321 13.4368 18.0119 12.9303 17.5054C12.7803 17.3554 12.6003 17.0941 12.5068 16.903C12.2927 16.4659 12.2896 16.2082 12.2896 15.7369ZM6.93651 10.9381H15.1437C15.2527 10.4264 15.3156 9.89959 15.4013 9.38423C15.5479 8.50269 15.6825 7.61851 15.8252 6.73621C15.9044 6.24651 15.9846 5.75681 16.0698 5.2681C16.1146 5.01116 16.159 4.74873 16.2121 4.491L6.46194 4.4921C6.18431 4.49214 5.8994 4.42423 5.69647 4.2237C5.53294 4.0621 5.45462 3.84119 5.46061 3.61361C5.47199 3.18068 5.78827 2.74502 6.24969 2.74502H17.3445C17.7165 2.74502 18.1321 3.16066 18.1321 3.53265C18.1321 3.70446 18.1178 3.871 18.0909 4.04057C18.0681 4.18494 18.0377 4.32798 18.0136 4.47217C17.9669 4.7526 17.9203 5.03306 17.8735 5.31349L16.8921 11.2023C16.8465 11.4756 16.8331 11.7419 16.7492 12.0095C16.6456 12.3401 16.4484 12.6022 16.0912 12.6713L16.0734 12.6748L5.26781 12.6835C5.07508 12.6837 4.76964 12.682 4.62228 12.8294C4.49603 12.9556 4.46151 13.1825 4.52418 13.3465C4.6008 13.5471 4.74536 13.6185 4.94859 13.652C5.08176 13.6739 5.22288 13.6761 5.35764 13.6757C5.52699 13.6751 5.69624 13.6691 5.86563 13.6691C6.51994 13.6691 7.17426 13.6691 7.82856 13.6691C8.01806 13.6691 8.20852 13.6643 8.39806 13.6615C8.70634 13.6571 9.01465 13.6536 9.32297 13.6532C9.62446 13.6528 9.92759 13.6541 10.2289 13.6663C10.37 13.6721 10.6782 13.6805 10.8032 13.7415C11.1935 13.9319 11.383 14.321 11.2801 14.7436C11.1936 15.0985 10.9002 15.4151 10.5169 15.4151H8.51804C8.52177 15.4319 8.52552 15.4491 8.52907 15.4668C8.5664 15.6532 8.57353 15.8461 8.57353 16.0357C8.57353 17.0457 7.8447 17.852 6.89293 18.1034C6.42845 18.2261 5.93314 18.2074 5.48537 18.029C4.96969 17.8236 4.58014 17.4356 4.31836 16.9513C4.2006 16.7335 4.09655 16.3694 4.09655 16.121C4.09655 15.9949 4.09512 15.8685 4.09642 15.7425C4.09709 15.6787 4.09845 15.614 4.11 15.5511C4.11973 15.4982 4.13675 15.4467 4.15194 15.3951C4.16404 15.3541 4.17545 15.3129 4.18632 15.2715C3.82166 15.1467 3.48165 14.9114 3.2463 14.6116C2.77575 14.0123 2.73103 13.7055 2.73103 12.9632C2.73103 12.0699 3.48919 11.2816 4.30947 11.026C4.57763 10.9425 4.80706 10.9352 5.06127 10.9364C5.02312 10.8221 4.98166 10.7085 4.93972 10.5955C4.86131 10.3841 4.77803 10.1747 4.69946 9.96362C4.55338 9.5712 4.40513 9.17958 4.25533 8.78856L1.63775 1.76203C1.31802 1.77128 0.9749 1.80502 0.670188 1.73441C0.193322 1.62391 0 1.27902 0 0.80162C0 0.429634 0.415642 0.0139919 0.787628 0.0139919C1.16501 0.0139919 1.54212 -0.000156299 1.91896 1.30704e-06C2.13505 9.82951e-05 2.39294 0.0037352 2.59575 0.0850233C2.79728 0.16579 2.92077 0.310193 3.02114 0.499053C3.14645 0.734867 3.23978 1.02438 3.32972 1.27648C3.49686 1.745 3.6854 2.20538 3.85256 2.67391C4.01959 3.14209 4.20596 3.60293 4.375 4.06938L6.93651 10.9381ZM14.0323 15.9129C14.0515 15.9799 14.0796 16.0639 14.1052 16.127C14.1798 16.2819 14.3777 16.402 14.5497 16.3903C14.8427 16.3703 15.0178 16.1631 14.9978 15.8753C14.9788 15.602 14.7903 15.4052 14.507 15.4251C14.3513 15.436 14.2223 15.5094 14.1314 15.6356C14.0846 15.7006 14.0241 15.8273 14.0323 15.9129ZM5.84025 15.9212C5.88148 16.1876 6.0708 16.4095 6.35674 16.3902C6.64942 16.3705 6.82441 16.1632 6.80479 15.8758C6.78608 15.6018 6.59736 15.4056 6.31346 15.425C6.16356 15.4352 6.03654 15.5116 5.94614 15.6298C5.89312 15.6992 5.82622 15.8305 5.84025 15.9212Z" fill="white"/>
</svg>
