<svg width="20" height="18" viewBox="0 0 20 18" fill="none" xmlns="http://www.w3.org/2000/svg">
<path fill-rule="evenodd" clip-rule="evenodd" d="M1.44824 11.9957H18.5306V16.1151H1.44824V11.9957ZM1.44824 1.90497H18.5306V10.8241H1.44824V1.90497ZM0.314453 17.2867H19.6644V0.733398H0.314453V17.2867Z" fill="#539580"/>
<path fill-rule="evenodd" clip-rule="evenodd" d="M12.7487 6.44057C12.7487 6.0264 12.845 5.6386 13.1576 5.3756C13.7074 4.91306 14.4564 4.90167 14.9885 5.37232C15.7322 6.03023 15.5051 7.68774 13.9958 7.68774C13.3505 7.68774 12.7487 7.08592 12.7487 6.44057ZM10.7364 3.78584C10.7883 3.95479 11.8553 4.97547 11.955 5.04224C11.4504 5.99583 11.4294 6.6944 11.955 7.68774L10.7363 8.8878L11.5301 9.69999L12.758 8.49069C13.7227 8.98962 14.4376 8.98756 15.3942 8.48139L16.5942 9.70006C16.7463 9.65339 17.3673 8.99814 17.435 8.89712L16.1968 7.6787C16.6337 6.83374 16.7509 5.88307 16.1878 5.04224L17.4259 3.82383L16.6128 2.99219L15.3851 4.23957C14.8177 3.86547 13.9974 3.75896 13.3201 3.98857C13.2276 4.01993 13.1018 4.05534 13.0127 4.09693C12.9129 4.1435 12.8496 4.19517 12.7487 4.24859L11.5302 3.01044L10.7364 3.78584Z" fill="#539580"/>
<path fill-rule="evenodd" clip-rule="evenodd" d="M4.58459 6.44017C4.58459 6.026 4.68092 5.6382 4.99354 5.3752C5.22251 5.18259 5.53781 5.02365 5.90708 5.02393C6.63668 5.02452 7.23009 5.60183 7.23009 6.25122C7.23009 6.75963 7.18548 6.95766 6.82441 7.31946C6.02989 8.11559 4.58459 7.54103 4.58459 6.44017ZM2.57234 3.78545C2.62214 3.9466 2.75121 4.02113 2.85557 4.12536L3.79094 5.04185C3.73417 5.14915 3.70652 5.18962 3.64971 5.31633C3.25822 6.18945 3.36842 6.88885 3.79094 7.68735L2.57227 8.8874L3.36599 9.69959L4.59389 8.49029C5.55862 8.98922 6.27349 8.98716 7.23009 8.48099L8.43015 9.69966C8.66738 9.62686 8.97727 9.13113 9.27091 8.9345L8.03305 7.67803C8.46958 6.83312 8.58678 5.88266 8.02374 5.04185L9.28021 3.80399L8.44827 2.99219L7.22105 4.23917C6.65368 3.86507 5.83338 3.75856 5.15602 3.98817C4.69477 4.14454 4.94537 4.05729 4.58459 4.24819L3.36618 3.01004L2.57234 3.78545Z" fill="#539580"/>
<path fill-rule="evenodd" clip-rule="evenodd" d="M8.28906 14.6413H11.6904V13.4697H8.28906V14.6413Z" fill="#539580"/>
<path fill-rule="evenodd" clip-rule="evenodd" d="M13.9951 14.5279C13.9951 14.615 14.0214 14.6413 14.1085 14.6413H15.0533C15.1404 14.6413 15.1667 14.615 15.1667 14.5279V13.4697H13.9951V14.5279Z" fill="#539580"/>
<path fill-rule="evenodd" clip-rule="evenodd" d="M16.2627 14.5279C16.2627 14.615 16.289 14.6413 16.3761 14.6413H17.3209C17.408 14.6413 17.4343 14.615 17.4343 14.5279V13.4697H16.2627V14.5279Z" fill="#539580"/>
<path fill-rule="evenodd" clip-rule="evenodd" d="M2.54395 14.5279C2.54395 14.615 2.57023 14.6413 2.65732 14.6413H3.60214C3.68922 14.6413 3.71552 14.615 3.71552 14.5279V13.4697H2.54395V14.5279Z" fill="#539580"/>
<path fill-rule="evenodd" clip-rule="evenodd" d="M4.81152 14.5279C4.81152 14.615 4.83781 14.6413 4.92489 14.6413H5.86972C5.95679 14.6413 5.98309 14.615 5.98309 14.5279V13.4697H4.81152V14.5279Z" fill="#539580"/>
</svg>
