<svg width="22" height="22" viewBox="0 0 22 22" fill="none" xmlns="http://www.w3.org/2000/svg">
<path fill-rule="evenodd" clip-rule="evenodd" d="M6.06752 18.7391C6.06752 18.3173 6.32751 17.9089 6.66256 17.6674C7.10172 17.351 7.63215 17.3196 8.12896 17.5164C9.98014 18.2498 11.7979 18.3492 13.6619 17.5942C13.9056 17.4954 14.1649 17.3673 14.4337 17.3673C15.4071 17.3673 15.9645 17.9947 15.9645 18.9511C15.9645 19.9735 14.6199 20.458 13.8152 20.6752C13.2785 20.8202 12.722 20.9169 12.1704 20.9822C11.7855 21.0278 11.3775 21.0647 10.9895 21.0647C10.6432 21.0647 10.2893 21.0338 9.94556 20.9927C9.53905 20.9442 9.13291 20.8774 8.73216 20.7938C8.34681 20.7134 7.95896 20.6167 7.58561 20.4915C7.30416 20.3971 6.98201 20.2722 6.73722 20.1023C6.18278 19.7173 6.06752 19.393 6.06752 18.7391ZM10.9895 8.62297C12.3058 8.62297 13.3729 9.69004 13.3729 11.0063C13.3729 12.3226 12.3058 13.3897 10.9895 13.3897C9.67323 13.3897 8.60616 12.3226 8.60616 11.0063C8.60616 9.69004 9.67323 8.62297 10.9895 8.62297ZM10.9895 9.53526C11.802 9.53526 12.4606 10.1939 12.4606 11.0063C12.4606 11.8188 11.802 12.4774 10.9895 12.4774C10.1771 12.4774 9.51845 11.8188 9.51845 11.0063C9.51845 10.1939 10.1771 9.53526 10.9895 9.53526ZM7.47892 18.522C7.35039 18.5346 7.16859 18.7206 7.16859 18.8451C7.16859 19.1309 7.54112 19.2347 7.75596 19.3203C9.47241 20.0035 11.6184 20.1116 13.3926 19.5906C13.6869 19.5042 13.9726 19.4023 14.2618 19.3007C14.4484 19.2351 14.873 19.0539 14.8232 18.7886C14.7963 18.645 14.6293 18.5213 14.4867 18.5213C14.4428 18.5213 14.3502 18.5542 14.3083 18.5686C14.1873 18.6101 14.0673 18.6564 13.9472 18.7003C13.5663 18.8396 13.1857 18.961 12.7905 19.0537C11.5408 19.3468 10.281 19.3328 9.03579 19.0167L9.03291 19.016L7.47892 18.522ZM18.0957 10.579C18.0957 10.4487 18.0786 10.3379 18.0656 10.2104C18.0513 10.0693 18.0651 9.95288 18.0998 9.81527C18.2525 9.20971 18.7132 8.7682 19.3384 8.68811C19.9242 8.61307 20.4937 8.88283 20.7918 9.39707C21.044 9.83187 21.0513 10.4592 21.0513 10.95C21.0513 12.4318 20.7195 14.0291 20.0516 15.3576C19.7644 15.9287 19.4336 16.5181 19.0486 17.0288L19.0473 17.0306L18.4437 17.7626L18.4396 17.7665C17.832 18.3547 16.9695 18.3525 16.3625 17.7666C15.896 17.3164 15.738 16.8089 16.0133 16.2146C16.1169 15.9909 16.2652 15.7864 16.4183 15.5943C16.5477 15.432 16.6928 15.2709 16.8104 15.1007C17.8371 13.6143 18.0957 12.3777 18.0957 10.579ZM19.8972 10.4201C19.8972 10.2567 19.8687 10.0655 19.7676 9.93143C19.7082 9.85265 19.6233 9.79604 19.5222 9.79538C19.4286 9.79477 19.3458 9.84271 19.289 9.91547C19.2053 10.0227 19.1854 10.1682 19.1962 10.3002C19.3471 12.1474 18.9318 14.0417 17.8619 15.5722C17.7301 15.7607 17.6004 15.9491 17.4579 16.1299C17.3913 16.2143 17.0863 16.5328 17.0772 16.6202C17.0772 16.8801 17.0838 17.0493 17.401 17.0493C17.6847 17.0493 18.2155 16.2658 18.3564 16.0514C18.5261 15.7935 18.685 15.5267 18.8347 15.2567C18.93 15.0849 19.0302 14.9028 19.1106 14.7235C19.4145 14.0458 19.6465 13.3731 19.7673 12.6388C19.8874 11.9089 19.8972 11.1582 19.8972 10.4201ZM11.3133 2.47195C11.3133 2.0589 11.5214 1.717 11.805 1.43301C12.5031 0.734184 13.2862 1.03748 14.1017 1.31007C15.2459 1.69256 16.187 2.18921 17.1445 2.92171C17.3667 3.09164 17.5846 3.2736 17.7936 3.4594C17.991 3.63481 18.2213 3.84413 18.3814 4.05377C18.4879 4.19321 18.6204 4.30655 18.7295 4.44585C18.9566 4.73607 19.1922 5.02397 19.3904 5.33514C19.5944 5.65551 19.8856 6.05025 19.8856 6.446C19.8856 7.15491 19.5445 7.79293 18.8274 7.98417C18.2278 8.14407 17.5709 7.91463 17.2117 7.40607C17.1003 7.24828 17.0133 7.07484 16.9054 6.91454C16.807 6.76851 16.6988 6.63153 16.5941 6.49031C15.9161 5.57637 15.0777 4.97405 14.0709 4.46898C13.7798 4.32295 13.4693 4.2196 13.159 4.123C12.8642 4.0312 12.5607 3.94518 12.2766 3.82376C11.659 3.55973 11.3133 3.17483 11.3133 2.47195ZM12.4673 2.47195C12.4673 2.56683 12.4928 2.6405 12.5657 2.702C12.6526 2.77526 12.7931 2.82137 12.9006 2.85368C13.085 2.9092 13.2739 2.95307 13.4593 3.00614C13.7042 3.07623 13.9426 3.15855 14.1752 3.26308C15.4656 3.84327 16.3358 4.45971 17.2768 5.51874C17.4866 5.75477 17.6702 6.03204 17.8448 6.29517C17.9294 6.42258 18.0107 6.55203 18.0961 6.67897C18.1925 6.82234 18.3372 6.92235 18.5142 6.86927C18.5959 6.84477 18.7315 6.75424 18.7315 6.65796C18.7315 6.4945 18.7077 6.37218 18.6306 6.22868C18.5876 6.14864 18.535 6.07201 18.4825 5.99791C18.4068 5.89083 18.3283 5.78548 18.2514 5.67918C18.1556 5.54678 18.0569 5.41695 17.9581 5.28678C17.5935 4.80624 17.1414 4.38544 16.6844 3.99431C16.5709 3.8972 16.4455 3.81494 16.3264 3.72501C16.0722 3.53308 15.8041 3.3532 15.5321 3.18744C15.2651 3.02476 14.98 2.8656 14.6912 2.74534C14.237 2.55623 13.7912 2.34774 13.3117 2.22753C13.1289 2.18175 12.867 2.1311 12.681 2.17768C12.526 2.21653 12.4673 2.31391 12.4673 2.47195ZM5.31813 6.57974L4.69683 7.49863L4.69363 7.50246C4.28971 7.9879 3.65502 8.14603 3.06672 7.93065C2.47721 7.71481 2.09345 7.18293 2.09345 6.552C2.09345 5.86861 2.82611 5.00067 3.23458 4.48326C3.59281 4.02948 3.99451 3.65054 4.41653 3.25893C5.38865 2.35681 7.90718 0.994141 9.24094 0.994141C9.86845 0.994141 10.3687 1.4297 10.5654 2.00706C10.7667 2.59777 10.6208 3.2412 10.1049 3.62198C9.94265 3.74173 9.75748 3.81588 9.56671 3.87703C9.34192 3.94908 9.11149 4.00626 8.88542 4.0754C8.14722 4.30104 7.51655 4.62503 6.88182 5.06581C6.28046 5.4834 5.75703 5.99436 5.31813 6.57974ZM3.57128 6.87574C3.74593 6.87574 3.82358 6.79537 3.90953 6.65734C4.95349 4.98145 6.03762 4.054 7.83999 3.24604C8.06652 3.14451 8.29883 3.06538 8.53759 2.99828C8.71936 2.94718 8.90453 2.90517 9.08519 2.8514C9.19106 2.81986 9.32899 2.77478 9.41435 2.70234C9.48722 2.64053 9.51169 2.56595 9.51169 2.47195C9.51169 2.17164 9.28959 2.13656 9.03661 2.16177C8.74392 2.19096 8.43738 2.30551 8.16292 2.40693C6.86771 2.8855 5.89176 3.41507 4.87056 4.35961C4.71545 4.50311 4.56698 4.66587 4.42652 4.82365C4.23861 5.03484 4.05655 5.25284 3.88322 5.47617C3.73478 5.66737 3.24752 6.31266 3.24752 6.552C3.24752 6.77894 3.34431 6.87574 3.57128 6.87574ZM0.927734 10.95C0.927734 10.4789 0.935749 9.79434 1.18473 9.39081C1.46143 8.94241 1.91373 8.66167 2.44651 8.66736C2.94053 8.67261 3.39879 8.92681 3.67773 9.33261C3.85516 9.59071 3.90529 9.86541 3.91175 10.1736C3.91515 10.335 3.90716 10.4972 3.89979 10.6584C3.89129 10.844 3.88338 11.0291 3.88338 11.2149C3.88338 12.5285 4.24672 13.636 4.95362 14.7311C5.18998 15.0972 5.45408 15.4376 5.69898 15.7962C5.85452 16.024 6.05586 16.3344 6.05586 16.6196C6.05586 17.2684 5.73536 17.889 5.10236 18.1182C4.81853 18.221 4.51148 18.2239 4.22329 18.1363C3.88469 18.0335 3.59803 17.8168 3.37256 17.5477C3.32471 17.4906 3.26909 17.4432 3.21936 17.3879C3.11573 17.2725 3.03171 17.1441 2.93865 17.0206C2.15975 15.9871 1.50125 14.6473 1.22501 13.3786C1.14171 12.996 1.06272 12.6131 1.00989 12.2249C0.952191 11.8006 0.927734 11.3781 0.927734 10.95ZM2.72929 10.897C2.72929 10.7498 2.74882 10.6078 2.76736 10.4624C2.78142 10.3521 2.79651 10.2312 2.78173 10.1204C2.75798 9.94217 2.60028 9.76723 2.41129 9.7783C2.12912 9.79481 2.08181 10.2115 2.08181 10.4201C2.08181 11.1472 2.08198 11.9003 2.20708 12.6184C2.33403 13.3472 2.59503 14.033 2.88328 14.7112C2.95969 14.8911 3.05993 15.0763 3.15319 15.248C3.30073 15.5195 3.45793 15.7878 3.62612 16.047C3.76623 16.263 4.29241 17.0493 4.57805 17.0493C4.89022 17.0493 4.90181 16.8724 4.90198 16.6222C4.88878 16.5602 4.60276 16.2091 4.55291 16.1447C4.27792 15.7893 4.02591 15.4273 3.80222 15.0369C3.07136 13.7614 2.72929 12.3656 2.72929 10.897ZM11.3133 6.18108C11.3133 5.82324 11.5217 5.40937 11.7798 5.1657C12.0407 4.9194 12.4318 4.75623 12.7911 4.75623C13.781 4.75623 16.2824 6.49091 16.2824 7.55876V7.87665C16.2824 8.34735 15.8904 8.83408 15.4897 9.0462C14.832 9.3943 14.1779 9.1155 13.6871 8.62297C13.4083 8.34314 13.108 8.1038 12.7737 7.89385C12.5307 7.74118 12.2768 7.61358 12.0321 7.4661C11.5005 7.14574 11.3133 6.81918 11.3133 6.18108ZM12.4673 6.23406C12.4673 6.3449 12.5063 6.41511 12.5917 6.4832C12.7066 6.57483 12.8836 6.65131 13.0163 6.71664C13.2517 6.8325 13.473 6.9545 13.6884 7.10524C13.9956 7.32016 14.2694 7.5746 14.5164 7.85613C14.6316 7.98728 14.8011 8.10838 14.9787 8.02078C15.0842 7.96877 15.1814 7.83805 15.1814 7.71771C15.1814 7.56293 14.8802 7.25208 14.7752 7.14824C14.5894 6.96458 14.3787 6.78133 14.1694 6.62437C13.8738 6.40267 13.4996 6.16808 13.1602 6.02753C13.0196 5.96934 12.7957 5.8917 12.6423 5.92557C12.4934 5.95841 12.4673 6.09933 12.4673 6.23406ZM5.69659 7.55876C5.69659 6.87617 6.62193 6.09875 7.12332 5.73234C7.47933 5.47207 7.86822 5.23137 8.26603 5.04043C8.51932 4.91887 8.90355 4.75623 9.18795 4.75623C9.96888 4.75623 10.6658 5.45307 10.6658 6.23406C10.6658 6.74437 10.4654 7.1179 10.0525 7.40783C9.88924 7.52253 9.71111 7.61294 9.53251 7.70087C9.37889 7.7765 9.21561 7.85247 9.07371 7.94831C8.91919 8.0527 8.77016 8.16231 8.63203 8.28781C8.49715 8.4104 8.37548 8.54527 8.25688 8.68341C7.84692 9.16107 7.22609 9.30726 6.63952 9.09281C6.12513 8.90474 5.69659 8.44605 5.69659 7.87665V7.55876ZM6.85068 7.66473C6.85068 7.94586 6.92728 8.04145 7.22741 8.04145C7.35151 8.04145 7.65936 7.6435 7.75222 7.55237C7.96731 7.34125 8.20116 7.15627 8.45691 6.9969C8.64488 6.87978 8.83726 6.78288 9.03528 6.68488C9.15239 6.62694 9.30392 6.55591 9.40196 6.46944C9.47653 6.40367 9.51169 6.33475 9.51169 6.23406C9.51169 5.99563 9.40901 5.90513 9.17489 5.92891C8.87325 5.95956 8.48838 6.16948 8.23409 6.32768C7.89365 6.53947 7.55363 6.80074 7.26771 7.08091C7.16251 7.18398 6.85068 7.50807 6.85068 7.66473ZM6.64455 15.1301C5.88206 15.1301 5.50155 14.4205 5.20441 13.8292C5.14295 13.7069 5.09066 13.5828 5.03783 13.4568C4.64418 12.5171 4.17981 11.0133 5.05133 10.1996C5.65748 9.63374 6.72472 9.73941 7.20486 10.4131C7.48328 10.8037 7.47908 11.116 7.54041 11.5706C7.60168 12.0248 7.73474 12.3408 7.95522 12.7341C8.13819 13.0604 8.28133 13.3162 8.28133 13.7053C8.28133 14.3928 7.67755 15.1301 6.96248 15.1301H6.64455ZM6.00871 10.9971C5.83035 10.9971 5.74721 11.0921 5.71161 11.2596C5.66412 11.483 5.71495 11.7842 5.76463 12.0044C5.83046 12.2963 5.92653 12.588 6.03303 12.8673C6.10913 13.067 6.19428 13.2758 6.29139 13.4664C6.33002 13.5422 6.37122 13.6175 6.41298 13.6916C6.44419 13.747 6.49125 13.8361 6.53141 13.8837C6.62501 13.9947 6.76856 14.035 6.90503 13.9846C7.04763 13.9321 7.12726 13.802 7.12726 13.6523C7.12726 13.576 7.08021 13.4846 7.04508 13.4189C6.97342 13.2849 6.89482 13.1561 6.82545 13.0202C6.57018 12.52 6.44248 11.9968 6.38366 11.4397C6.37278 11.3366 6.35338 11.1712 6.28659 11.0873C6.22239 11.0067 6.10406 10.9971 6.00871 10.9971ZM13.6861 15.7718C13.6861 17.2529 12.1429 17.4616 10.9895 17.4616C10.4923 17.4616 9.90659 17.3721 9.42665 17.2475C8.38254 16.9763 7.96209 15.9441 8.49936 15.0139C8.77551 14.5358 9.17921 14.3635 9.71091 14.3716C10.1582 14.3783 10.6 14.5059 11.0425 14.5059C11.1109 14.5059 11.1845 14.4947 11.252 14.4837C11.348 14.4682 11.4436 14.4497 11.5394 14.4327C11.772 14.3913 12.0073 14.3573 12.2442 14.3593C12.8582 14.3644 13.3152 14.6182 13.5731 15.1997C13.6523 15.378 13.6861 15.5774 13.6861 15.7718ZM11.0955 16.3075C11.4466 16.3075 11.8891 16.2838 12.2207 16.1568C12.3483 16.108 12.5228 16.0169 12.5663 15.8749C12.6205 15.698 12.4324 15.5011 12.2612 15.5011C11.9746 15.5011 11.7269 15.5641 11.4478 15.6057C11.0411 15.6663 10.6652 15.6439 10.26 15.5771C10.1535 15.5596 10.0472 15.5378 9.94049 15.5224C9.83051 15.5066 9.72295 15.5011 9.61185 15.5011C9.51261 15.5011 9.43161 15.6412 9.40952 15.724C9.36742 15.8817 9.42964 16.0177 9.56643 16.1035C9.82112 16.2632 10.7747 16.3075 11.0955 16.3075ZM13.6977 13.5993C13.6977 13.2654 13.8616 13.0318 14.0204 12.7532C14.2593 12.3343 14.3844 11.9567 14.4501 11.4759C14.5195 10.9683 14.5004 10.7695 14.8298 10.3554C15.2333 9.84793 15.9047 9.72233 16.4924 9.95401C17.0933 10.1909 17.4822 10.7478 17.418 11.4057C17.3029 12.5861 16.7983 15.0281 15.3171 15.1522C14.9326 15.1844 14.531 15.0328 14.2311 14.7963C13.9286 14.5577 13.6977 14.2072 13.6977 13.8113V13.5993ZM14.8518 13.6091C14.8532 13.7925 14.8945 14.0291 15.1226 14.0291C15.449 14.0291 15.5263 13.7898 15.6517 13.5377C15.8985 13.0416 16.1521 12.4571 16.2491 11.9081C16.2903 11.6752 16.3192 11.339 16.2017 11.1216C16.1435 11.0138 16.0483 10.9408 15.9218 10.9502C15.8109 10.9585 15.7088 11.0289 15.6555 11.1255C15.624 11.1827 15.61 11.2859 15.6014 11.3502C15.5835 11.4843 15.5715 11.6192 15.5532 11.7534C15.4978 12.1601 15.3966 12.5337 15.2131 12.903C15.1519 13.0261 15.0827 13.1485 15.0186 13.2706C14.98 13.344 14.9417 13.4177 14.9051 13.4921C14.8903 13.5223 14.8624 13.5751 14.8518 13.6091Z" fill="#539580"/>
</svg>
