<svg width="16" height="20" viewBox="0 0 16 20" fill="none" xmlns="http://www.w3.org/2000/svg">
<path fill-rule="evenodd" clip-rule="evenodd" d="M12.9785 18.5518V1.46939H14.1123V18.5518H12.9785ZM8.44336 18.5518V17.418H10.7109V16.2464H8.44336V15.1504H9.57714V13.9788H8.44336V12.8828H10.7109V11.7112H8.44336V10.5775H9.57714V9.44368H8.44336V8.30989H10.7109V7.13832H8.44336V6.04232H9.57714V4.87075H8.44336V3.77475H10.7109V2.60318H8.44336V1.46939H11.8447V18.5518H8.44336ZM15.2461 19.6855V0.335606H7.30957L7.30957 19.6855H15.2461Z" fill="#539580"/>
<path fill-rule="evenodd" clip-rule="evenodd" d="M4.17577 19.6855V18.5518H3.04199L3.04199 1.46939H4.17577V0.335606H0.774414L0.774414 1.46939H1.9082L1.9082 18.5518H0.774414L0.774414 19.6855H4.17577Z" fill="#539580"/>
</svg>
