<svg width="20" height="18" viewBox="0 0 20 18" fill="none" xmlns="http://www.w3.org/2000/svg">
<path fill-rule="evenodd" clip-rule="evenodd" d="M1.44659 1.37403H18.5335V16.6464H1.44659V1.37403ZM0.3125 0.769191V17.2512C0.3125 17.5893 0.5864 17.8183 0.917343 17.8183H19.0627C19.4031 17.8183 19.6676 17.5953 19.6676 17.2512V0.769191C19.6676 0.419005 19.3701 0.202148 19.1383 0.202148H0.841743C0.720029 0.202148 0.553686 0.303062 0.479286 0.368919C0.378343 0.458277 0.3125 0.593234 0.3125 0.769191Z" fill="#539580"/>
<path fill-rule="evenodd" clip-rule="evenodd" d="M2.58105 15.0588C2.58105 15.7969 3.75294 15.8105 3.75294 15.0588C3.75294 14.3192 2.58105 14.2927 2.58105 15.0588Z" fill="#539580"/>
<path fill-rule="evenodd" clip-rule="evenodd" d="M6.89355 15.0679C6.89355 15.8184 8.06544 15.8184 8.06544 15.0679C8.06544 14.3224 6.89355 14.3224 6.89355 15.0679Z" fill="#539580"/>
<path fill-rule="evenodd" clip-rule="evenodd" d="M4.62207 15.0212C4.62207 15.8486 5.77658 15.7985 5.77717 15.0588C5.77756 14.5518 5.15468 14.3144 4.80338 14.6355C4.73247 14.7003 4.62207 14.8967 4.62207 15.0212Z" fill="#539580"/>
<path fill-rule="evenodd" clip-rule="evenodd" d="M12.8906 4.00352C12.8256 3.93112 12.7185 3.84435 12.3436 3.86736C12.0785 3.88363 11.9418 3.97134 11.8294 4.09011C11.7037 4.22293 11.6113 4.38708 11.4727 4.63329C11.4477 4.6778 11.4211 4.72499 11.3926 4.77516C11.2254 5.06911 10.9966 5.44681 10.6165 5.73822C10.2188 6.04318 9.71037 6.21504 9.04659 6.21504C7.88784 6.21504 7.34893 5.36217 7.00461 4.81727C6.99446 4.8012 6.98448 4.7854 6.97465 4.76989C6.57405 4.13784 6.3732 3.88559 5.94647 3.88494C5.72476 3.88459 5.62025 3.95201 5.52314 4.05872C5.40895 4.18419 5.3239 4.34145 5.19401 4.58162C5.16389 4.63731 5.13136 4.69747 5.09549 4.76272C4.92598 5.07108 4.69249 5.46379 4.30262 5.76824C3.89534 6.08628 3.37092 6.26925 2.68457 6.26925V5.05972C3.14033 5.05972 3.39248 4.94434 3.55818 4.81494C3.7413 4.67194 3.87722 4.4681 4.03554 4.18008C4.05711 4.14083 4.07998 4.09804 4.10424 4.05265C4.23436 3.80917 4.40441 3.49096 4.62859 3.24463C4.93811 2.90451 5.36063 2.67451 5.94833 2.67541C7.08507 2.67715 7.6182 3.52281 7.95746 4.06094C7.97068 4.08192 7.98361 4.10242 7.99627 4.12239C8.39125 4.7456 8.60097 5.00551 9.04659 5.00551C9.48717 5.00551 9.72573 4.8971 9.88053 4.7784C10.053 4.64614 10.1822 4.45678 10.3412 4.17715C10.3608 4.14264 10.3815 4.10549 10.4033 4.06632C10.5368 3.82642 10.7125 3.51056 10.9508 3.25874C11.2641 2.92774 11.6841 2.69603 12.2696 2.6601L12.3066 3.26354L12.2696 2.6601C12.8882 2.62213 13.4063 2.76705 13.791 3.19591C14.122 3.565 14.2886 4.08532 14.4295 4.57811C14.5209 4.89754 14.6372 5.04739 14.7157 5.11822C14.7918 5.18689 14.8678 5.21336 14.9398 5.22367C14.9389 5.22355 14.9396 5.2236 14.942 5.2238C14.95 5.22445 14.977 5.22667 15.0317 5.22927C15.0942 5.23225 15.1753 5.23499 15.2705 5.23745C15.4605 5.24237 15.6969 5.24592 15.9345 5.24832C16.4146 5.25317 16.8775 5.25312 16.9627 5.25099L16.9929 6.46015C16.8826 6.4629 16.3979 6.46259 15.9222 6.45778C15.6819 6.45536 15.4383 6.45173 15.2392 6.44658C15.0599 6.44194 14.8688 6.43536 14.7683 6.42099L14.7683 6.42099C14.5019 6.38284 14.1901 6.27309 13.9055 6.01631C13.6232 5.76166 13.4057 5.39681 13.2666 4.91077C13.1166 4.38621 13.0091 4.13569 12.8906 4.00352Z" fill="#539580"/>
<path fill-rule="evenodd" clip-rule="evenodd" d="M16.0696 11.7145C16.0696 10.7181 15.835 10.1056 15.153 9.41792C14.3093 8.56718 12.9993 8.34063 11.8624 8.83042C10.9152 9.23852 10.0968 10.3366 10.0968 11.3743C10.0968 12.1499 10.1878 12.632 10.6178 13.2727C11.087 13.9716 12.0094 14.5497 12.8564 14.5497H13.31C14.2075 14.5497 15.1085 13.9194 15.5336 13.2955C15.8193 12.8762 16.0696 12.2811 16.0696 11.7145ZM13.9905 11.6389C13.9905 10.5938 12.9371 10.4521 12.4504 10.8927C11.8929 11.3975 12.2382 12.4706 12.9698 12.4706H13.1966C13.6018 12.4706 13.9905 12.0419 13.9905 11.6389ZM15.1624 11.5633C15.1624 12.6972 14.2225 13.6425 13.0832 13.6425C10.863 13.6425 10.2121 10.6226 12.2258 9.68522C12.9156 9.36412 13.64 9.46302 14.2537 9.86358C14.796 10.2175 15.1624 10.913 15.1624 11.5633ZM5.44703 10.656C6.92241 10.656 6.90825 8.57689 5.44703 8.57689C4.40318 8.57689 4.10993 10.1196 5.03006 10.5438C5.12611 10.588 5.30762 10.656 5.44703 10.656ZM7.71521 9.59756C7.71521 10.2438 7.42645 10.8079 7.10199 11.1391C6.23998 12.019 4.82861 12.0298 4.03832 11.2331C3.48235 10.6726 3.33008 10.3094 3.33008 9.48416C3.33008 8.32713 4.52505 7.33369 5.55005 7.41503C6.11949 7.46022 6.66829 7.65929 7.06461 8.05561C7.44469 8.43571 7.71521 9.02231 7.71521 9.59756ZM17.2415 11.5633C17.2415 12.4142 16.9511 13.2635 16.5162 13.9001C15.3771 15.5678 13.2128 16.2068 11.3188 15.3313C8.88841 14.2078 7.99722 10.893 10.1384 8.65632C10.1438 8.65071 10.1515 8.64265 10.157 8.63715C10.1625 8.63166 10.1706 8.62389 10.1762 8.61852C10.5646 8.24675 10.8304 8.04069 11.3567 7.79542C11.5935 7.68506 11.8378 7.60262 12.1148 7.53291L13.0467 7.40332L13.9611 7.51002C14.7749 7.69646 15.4099 8.04908 15.9846 8.62415C16.7632 9.40338 17.2415 10.3731 17.2415 11.5633Z" fill="#539580"/>
</svg>
