<svg width="24" height="16" viewBox="0 0 24 16" fill="none" xmlns="http://www.w3.org/2000/svg">
<path fill-rule="evenodd" clip-rule="evenodd" d="M22.3557 14.9055H18.9312V1.11478H22.3557C22.4664 1.11478 22.5918 1.16917 22.6613 1.22571C22.716 1.27014 22.8185 1.40788 22.8185 1.48499V14.5352C22.8185 14.6764 22.6057 14.9055 22.3557 14.9055ZM1.16068 14.5352V1.48499C1.16068 1.34385 1.37352 1.11478 1.62346 1.11478H17.9131V14.9055H1.62346C1.51284 14.9055 1.38739 14.8511 1.31788 14.7945C1.26325 14.7501 1.16068 14.6124 1.16068 14.5352ZM0.142578 1.43872V14.5815C0.142578 15.2104 0.828364 15.9236 1.62346 15.9236H22.3557C22.7563 15.9236 23.1263 15.7287 23.3557 15.5352C23.5457 15.375 23.8366 14.9128 23.8366 14.5815V1.43872C23.8366 0.809865 23.1508 0.0966797 22.3557 0.0966797H1.62346C0.83185 0.0966797 0.142578 0.809008 0.142578 1.43872Z" fill="#539580"/>
<path fill-rule="evenodd" clip-rule="evenodd" d="M4.12259 4.07669H14.9515V11.9439H4.12259V4.07669ZM3.10449 3.52137V12.4992C3.10449 12.7552 3.37135 12.962 3.61355 12.962H15.368C15.7978 12.962 15.9696 12.7005 15.9696 12.2678V3.75275C15.9696 3.32004 15.7978 3.05859 15.368 3.05859H3.61355C3.37135 3.05859 3.10449 3.26537 3.10449 3.52137Z" fill="#539580"/>
<path fill-rule="evenodd" clip-rule="evenodd" d="M20.8752 7.03876C22.178 7.03876 22.2061 5.04883 20.8752 5.04883C19.5459 5.04883 19.5712 7.03876 20.8752 7.03876Z" fill="#539580"/>
<path fill-rule="evenodd" clip-rule="evenodd" d="M20.8752 9.99969C22.178 9.99969 22.2061 8.00977 20.8752 8.00977C19.5459 8.00977 19.5712 9.99969 20.8752 9.99969Z" fill="#539580"/>
<path fill-rule="evenodd" clip-rule="evenodd" d="M20.8751 4.07701C21.4304 4.07701 21.8634 3.60238 21.8769 3.10008C21.9114 1.81042 19.9161 1.7171 19.8735 3.06428C19.8569 3.58605 20.324 4.07701 20.8751 4.07701Z" fill="#539580"/>
</svg>
