<svg width="24" height="22" viewBox="0 0 24 22" fill="none" xmlns="http://www.w3.org/2000/svg">
<path fill-rule="evenodd" clip-rule="evenodd" d="M10.8565 14.6631C10.8565 13.5469 10.8849 12.8174 11.376 11.7621C11.6008 11.2791 12.1246 10.4487 12.5164 10.1863C12.7043 10.9926 12.5792 11.2901 13.1126 12.3064C13.1869 12.4482 13.2562 12.5845 13.3423 12.7307C13.6167 13.1969 13.8828 13.5182 14.2048 13.9305C14.7528 14.6324 15.564 15.4106 15.9166 16.2932C16.2885 17.2242 16.2496 17.8816 15.8806 18.7818C15.8001 18.9782 15.389 19.7939 15.1824 19.7939H10.0013C9.65278 19.7939 7.81081 17.9968 8.34138 15.7195L11.1583 16.7255C11.1583 16.1945 10.8565 15.5798 10.8565 14.6631ZM9.29711 14.4116L7.28504 13.7074C6.98447 14.9976 6.73172 14.8831 6.73172 16.7255C6.73172 18.5125 7.66322 19.5148 7.73775 19.7939C6.68337 19.7939 6.97279 19.768 6.19962 19.1691L5.45934 18.4506C4.24992 17.0051 3.64698 16.1556 3.24691 14.0735C2.84222 11.9674 3.44928 10.4097 3.46209 9.83416C3.64571 9.92226 3.86339 9.9941 4.08479 10.0666L7.34259 11.2354C7.57685 11.3232 7.77698 11.3716 8.01834 11.465C8.25198 11.5555 8.45041 11.6387 8.69348 11.6953C8.69348 11.4393 8.61382 11.1712 8.56354 10.9198C8.06284 8.41695 8.22538 5.8423 9.09059 3.50879H7.45047C7.42194 3.59836 7.39411 3.68853 7.36717 3.77947C7.15947 4.48036 7.03269 5.10167 6.91784 5.89555C6.87475 6.19332 6.79864 6.68033 6.78192 7.01717L6.73172 8.27482L6.79297 9.38073L3.54325 8.24396C3.29648 8.15773 2.67412 7.89055 2.45607 7.8724C2.38995 8.01019 2.35664 8.18427 2.31135 8.3313L1.89011 9.87183C1.34261 12.4282 1.52304 14.5039 2.54214 16.8909C3.05877 18.1011 4.10357 19.3634 5.08384 20.2345C5.32794 20.4515 6.35278 21.303 6.58081 21.303H18.8042C19.1164 21.303 20.2894 19.7594 20.5121 19.3892C20.6665 19.1327 20.8339 18.8556 20.9675 18.5871C21.2488 18.0217 21.4618 17.4564 21.6655 16.8203C22.2214 15.0846 22.1464 12.9529 21.419 11.2937C21.0538 10.4605 20.7662 9.94837 20.2723 9.2211C20.1557 9.04927 20.0728 8.90912 19.9473 8.74133L16.6836 4.71123C16.4006 4.32755 16.1409 3.92609 15.9095 3.50879H14.2022C14.6307 4.38006 14.9817 5.00739 15.6279 5.86759C16.5615 7.11045 18.1804 8.84153 18.9046 9.93495C19.7253 11.1742 20.5144 12.596 20.5144 14.2104C20.5144 16.0464 19.7494 17.8883 18.7687 19.2052C18.1852 19.9889 18.1917 19.7939 17.0939 19.7939C18.1341 17.828 17.7968 15.9152 16.4331 14.2173C16.2867 14.035 16.2158 13.9229 16.0502 13.745C15.661 13.3267 14.8185 12.2488 14.5951 11.8299C14.0331 10.7756 14.183 10.6715 14.0545 9.80516L13.8746 7.41967C13.3374 7.56312 11.8539 8.66073 11.3218 9.19282C11.1999 9.31462 11.0812 9.41752 10.9717 9.54696C9.83041 10.8963 9.29711 12.612 9.29711 14.4116Z" fill="#539580"/>
<path d="M23.1256 0.716797H0.854492V2.19298H23.1256V0.716797Z" fill="#539580"/>
<path d="M15.4233 3.50879H8.13867V4.98497H15.4233V3.50879Z" fill="#539580"/>
</svg>
