<svg width="18" height="18" viewBox="0 0 18 18" fill="none" xmlns="http://www.w3.org/2000/svg">
<path fill-rule="evenodd" clip-rule="evenodd" d="M5.625 4.88672C5.57253 4.61552 5.77075 3.79816 5.90073 3.47495C5.9826 3.27138 6.08021 3.0983 6.19383 2.9243C6.51579 2.43127 7.01498 1.99883 7.54626 1.74549C8.67124 1.20904 10.1459 1.34474 11.0987 2.15525C12.0723 2.98357 12.5448 4.10822 12.2954 5.43998C12.1018 6.47393 11.3984 7.36653 10.4537 7.81702C9.18888 8.42017 7.66989 8.16862 6.67003 7.21669C6.57576 7.12695 6.55086 7.0868 6.47368 6.99117C6.02843 6.43957 5.78103 6.01483 5.674 5.2596C5.66213 5.17586 5.6657 5.14476 5.66012 5.06254C5.65024 4.91719 5.63788 4.95325 5.625 4.88672ZM4.21875 4.57031C4.21875 5.58586 4.33982 6.2365 4.82833 7.12479C5.00439 7.44496 5.17662 7.65299 5.39359 7.93064C5.64951 8.25814 6.0405 8.5086 6.11719 8.61328C5.5414 8.74742 4.36855 9.37639 3.89484 9.69562C3.55609 9.92391 3.27348 10.157 2.9635 10.4166C2.66273 10.6685 2.40926 10.9558 2.13504 11.2405L1.77301 11.6871C1.39092 12.1732 1.08299 12.6686 0.80856 13.2187C0.413746 14.0101 0 15.0718 0 15.9961C0 17.0108 1.00534 18 2.0039 18H4.67578C5.44608 18 5.5848 16.8127 4.83187 16.6135C4.6415 16.5631 2.81113 16.5925 2.46083 16.5939C2.01949 16.5955 1.71585 16.5474 1.54701 16.2772C1.31639 15.9081 1.50068 15.2862 1.66251 14.8813C1.93498 14.1995 1.86094 14.3022 2.20302 13.6288C2.34666 13.3461 2.50838 13.1148 2.67172 12.867L3.19391 12.1939C3.31863 12.039 3.63242 11.7304 3.78835 11.593L4.44939 11.0588C6.28416 9.66649 9.0377 9.16427 11.2547 9.90934C11.5382 10.0046 11.6922 10.0898 12.0234 10.0898C12.696 10.0898 13.1473 8.90789 11.8828 8.61328C11.9458 8.5273 12.1473 8.3896 12.2429 8.3054C13.1354 7.51889 13.7812 6.14543 13.7812 4.92187C13.7812 4.07602 13.672 3.43062 13.3244 2.74205C13.1968 2.48933 13.0818 2.25226 12.9126 2.02879C12.4893 1.46944 12.3306 1.30635 11.7724 0.883831C11.1634 0.422852 10.0617 0 9.21094 0C8.33721 0 7.69869 0.0843263 6.9608 0.456894C5.865 1.01017 5.22857 1.64693 4.67565 2.74205C4.4622 3.16479 4.21875 3.93764 4.21875 4.57031Z" fill="white"/>
<path fill-rule="evenodd" clip-rule="evenodd" d="M11.6367 12.5508C10.2422 12.5508 8.84765 12.5508 7.45313 12.5508C6.44291 12.5508 6.64442 12.678 6.05618 13.2632C5.87101 13.4474 5.71282 13.6057 5.52832 13.79C5.25811 14.0601 5.13281 14.1404 5.13281 14.5547C5.13281 14.9154 5.65976 15.3453 5.95019 15.6357C6.29755 15.9831 6.65047 16.4531 7.03125 16.4531H9.38672C10.1313 16.4531 10.3306 15.3471 9.59515 15.0845C9.23502 14.956 7.83464 15.1187 7.42043 15.0444C7.27533 15.0184 6.9251 14.616 6.85547 14.4844C6.92652 14.3783 7.01552 14.3068 7.11034 14.2119C7.50686 13.8152 7.37747 13.957 8.54297 13.957H11.8828C12.8235 13.9576 12.7528 13.7306 13.0378 12.862C13.1504 12.5187 13.2672 12.4102 13.7109 12.4102H15.6094C16.1416 12.4102 16.1938 12.7046 16.3522 13.1791C16.4527 13.4805 16.5961 14.1516 16.596 14.4844C16.596 14.6491 16.566 14.661 16.5589 14.8362C16.5519 15.0072 16.546 15.0279 16.5149 15.179C16.4572 15.4594 16.2902 16.1223 16.1417 16.3527C16.0369 16.5154 15.8702 16.5938 15.6094 16.5938H13.6406C13.1103 16.5938 13.0469 16.2482 12.9248 15.833C12.8091 15.4396 12.7333 15.0469 12.1289 15.0469C11.7168 15.0469 11.4609 15.3666 11.4609 15.8203C11.4609 16.0893 11.7928 17.0177 12.0498 17.3057C12.3974 17.6954 12.8528 18 13.4297 18H15.8906C16.572 18 17.1741 17.4853 17.4732 16.8756C18.1781 15.4387 18.1718 13.5358 17.4614 12.105C17.1596 11.4971 16.5703 11.0039 15.8203 11.0039H13.4297C12.9645 11.0039 12.4989 11.2464 12.2602 11.4868C12.1118 11.6362 11.98 11.7635 11.8819 11.9522C11.7067 12.2893 11.7192 12.3788 11.6367 12.5508Z" fill="white"/>
<path fill-rule="evenodd" clip-rule="evenodd" d="M14.4492 14.4492C14.4492 15.4378 15.8555 15.4378 15.8555 14.4492C15.8555 13.5625 14.4492 13.5625 14.4492 14.4492Z" fill="white"/>
</svg>
