<svg width="28" height="20" viewBox="0 0 28 20" fill="none" xmlns="http://www.w3.org/2000/svg">
<path fill-rule="evenodd" clip-rule="evenodd" d="M1.99112 15.9326H17.7675C17.7171 16.5374 17.2026 17.3459 16.8336 17.6537C16.3918 18.022 15.7399 18.4344 14.9594 18.4344H4.79922C3.59927 18.4344 2.52312 17.4731 2.14347 16.444C2.08613 16.2886 2.05682 16.0695 1.99112 15.9326ZM27.0597 9.73533V10.3421C27.0194 11.6502 26.7175 12.9446 26.1407 14.0946C25.8622 14.6499 25.6293 15.0863 25.2656 15.5681L24.4774 16.5158C24.3756 16.6477 24.3366 16.7058 24.2132 16.8132C24.0757 16.9329 24.0181 16.9547 23.8812 17.0939C22.4513 18.5475 19.7946 19.5066 17.6143 19.5066H4.90133C3.73396 19.5066 2.67583 18.8793 2.0984 18.2761C2.09115 18.2685 2.0811 18.2571 2.07397 18.2494L2.02645 18.1949C1.97167 18.1346 1.95649 18.1206 1.90125 18.0648C1.80515 17.9676 1.77063 17.9271 1.69392 17.8126C1.30145 17.2269 0.918945 16.4701 0.918945 15.6774C0.918945 14.7253 1.23279 14.8605 2.2464 14.8605C1.95396 14.4237 0.918945 13.6832 0.918945 12.0013C0.918945 11.1779 1.14629 11.2865 2.2464 11.2865L1.75116 10.7096C1.3034 10.1577 0.918945 9.21036 0.918945 8.42738V8.24096C0.924874 7.9606 0.985388 7.71761 1.4773 7.70931C3.64165 7.67281 6.18822 7.7126 8.37315 7.7126C8.40072 7.38121 8.74132 6.50027 8.88429 6.18149C9.11787 5.66056 9.63445 4.73547 10.0223 4.25613C10.1858 4.05396 10.3144 3.89374 10.4815 3.6942C12.0714 1.79533 14.9087 0.513672 17.5122 0.513672C20.4255 0.513672 22.2678 1.51387 24.2132 3.20704L24.776 3.81853C24.9569 4.00524 25.1239 4.26396 25.2876 4.48117C26.3979 5.95434 27.0014 7.83814 27.0597 9.73533ZM1.99112 12.3076H17.7675C17.7374 12.6694 17.5476 13.0681 17.4114 13.3301L16.7865 14.0837C16.2777 14.5554 15.5683 14.8605 14.8062 14.8605H4.90133C4.1418 14.8605 3.37707 14.458 2.97327 14.0825C2.07965 13.2517 2.18872 12.7498 1.99112 12.3076ZM1.99112 8.73371H17.7675C17.6575 10.0549 16.3041 11.2865 14.6531 11.2865H5.05449C4.15259 11.2865 3.516 10.9418 3.0042 10.5287C2.19865 9.87861 2.13942 9.06556 1.99112 8.73371ZM17.308 3.6281C18.8914 3.6281 19.9479 3.90323 21.1989 4.74061C21.7849 5.13287 22.3112 5.65586 22.7279 6.22396L23.1637 6.9114C23.6972 7.86506 24.042 9.08934 23.9544 10.1691C23.8841 11.0366 23.9337 11.1418 23.6199 12.0844C23.1291 13.5583 22.2011 14.6196 20.9542 15.4433C20.6962 15.6138 20.2676 15.8213 19.9709 15.9406C19.5683 16.1026 19.2633 16.1794 18.7886 16.29C18.7979 15.8735 19.0019 15.416 18.7705 15.0828C18.5564 14.7747 18.0105 14.8605 17.5122 14.8605L17.8831 14.4655C18.5147 13.8134 19.099 12.1668 18.807 11.5748C18.6043 11.1637 18.0942 11.2865 17.5122 11.2865C17.6434 11.0906 17.8437 10.9886 18.1868 10.4805C18.5858 9.88983 19.3351 7.94656 18.521 7.72488C18.4073 7.69391 17.9198 7.71257 17.7675 7.7126C15.7252 7.71283 13.683 7.7126 11.6407 7.7126C11.6715 7.34291 12.2536 6.45324 12.4795 6.15167C13.1639 5.23787 14.1917 4.44517 15.273 4.04381C15.8162 3.84219 16.5825 3.6281 17.308 3.6281ZM10.5175 7.7126H9.44532C9.5218 7.55323 9.67689 6.947 9.90407 6.48649C10.4892 5.30041 11.1302 4.37993 12.163 3.53773C13.4752 2.46773 15.3335 1.58586 17.1548 1.58586C18.4056 1.58586 18.5437 1.5494 19.8308 1.87116C20.8327 2.12161 22.4161 2.9287 23.1414 3.66609C23.515 4.04586 23.6821 4.12391 24.1429 4.70687C25.3015 6.17244 26.0386 7.9901 26.0386 10.0101C26.0386 12.2297 24.9524 14.8177 23.2966 16.203L22.428 16.9171C21.0515 17.9521 19.3185 18.4344 17.5633 18.4344C17.7534 18.1504 17.9333 18.0544 18.1945 17.6361C18.4145 17.2839 18.5514 17.42 19.2959 17.2568C20.0057 17.1013 20.7564 16.7814 21.3638 16.4145L23.0141 15.1036C23.1159 14.9935 23.1223 14.9566 23.2186 14.8485C25.7957 11.9561 25.5656 7.48506 22.8094 4.71291C19.7062 1.59177 14.337 1.84441 11.5306 5.66234C11.2758 6.00897 10.5577 7.23007 10.5175 7.7126Z" fill="#539580"/>
</svg>
