<svg width="15" height="15" viewBox="0 0 15 15" fill="none" xmlns="http://www.w3.org/2000/svg">
<path d="M10.0643 8.8496C10.7391 7.92828 11.1428 6.79661 11.1428 5.56979C11.1428 2.49872 8.64336 0 5.57139 0C2.49942 0 0 2.49872 0 5.56979C0 8.64087 2.49944 11.1396 5.57142 11.1396C6.79859 11.1396 7.9307 10.736 8.85229 10.0613L13.1821 14.3938C13.5167 14.7286 14.0593 14.7287 14.3941 14.3941V14.3941C14.7287 14.0595 14.7289 13.517 14.3943 13.1823L10.0643 8.8496ZM5.57142 9.42579C3.44447 9.42579 1.71429 7.69613 1.71429 5.56979C1.71429 3.44346 3.44447 1.71379 5.57142 1.71379C7.69837 1.71379 9.42854 3.44346 9.42854 5.56979C9.42854 7.69613 7.69834 9.42579 5.57142 9.42579Z" fill="white"/>
</svg>
