<svg width="22" height="22" viewBox="0 0 22 22" fill="none" xmlns="http://www.w3.org/2000/svg">
<path fill-rule="evenodd" clip-rule="evenodd" d="M1.8776 15.9701C1.8776 15.6923 2.11704 15.4837 2.25711 15.3013C2.32907 15.2076 2.35373 15.1825 2.44208 15.1234L6.88743 19.5486C6.7814 19.7019 6.29638 20.1232 6.07097 20.1232C5.6811 20.1232 5.28375 19.598 4.91174 19.226L2.29088 16.6052C2.12747 16.4418 1.8776 16.257 1.8776 15.9701ZM7.8451 18.7522L3.25854 14.1456L8.58807 7.80215C8.87092 7.44073 9.97821 6.20648 10.1031 5.97052L16.0403 11.8876L8.88334 17.8954C8.71758 18.0533 8.54464 18.1652 8.37942 18.3189C8.2062 18.48 8.03667 18.624 7.8451 18.7522ZM10.345 4.23672C10.345 3.78319 10.8617 3.27509 11.5446 3.96446L18.0363 10.4561C18.7509 11.164 18.1617 11.6558 17.8044 11.6558C17.4203 11.6558 17.1115 11.225 16.7459 10.8594L10.718 4.83145C10.5633 4.6769 10.345 4.5223 10.345 4.23672ZM13.2784 3.9645C13.6782 3.95448 14.068 3.95505 14.4577 3.95445C15.1246 3.95345 14.9539 3.94658 15.3145 4.30728L17.6935 6.68622C18.0954 7.08808 18.0481 6.92399 18.0463 7.50266C18.0451 7.90582 18.0463 8.30916 18.0463 8.71235L13.2784 3.9645ZM16.1009 3.35966C16.2051 3.20902 17.3285 2.08012 17.4665 2.00365C17.8824 1.77318 18.1383 2.00862 18.379 2.25088L19.7297 3.60165C19.9735 3.84459 20.2262 4.0712 20.0108 4.50766C19.9349 4.6615 18.8099 5.78353 18.6511 5.88988L16.1009 3.35966ZM14.9013 2.74485H12.1191C11.9807 2.74485 11.9544 2.6997 11.8596 2.64143C11.16 2.21118 10.2653 2.36236 9.70931 2.87526C9.28235 3.26909 9.13537 3.67656 9.13537 4.31736C9.13537 4.6851 9.23347 4.77193 9.29664 5.04313C9.14171 5.27452 8.92288 5.48945 8.74422 5.70033L7.36717 7.34736C7.31515 7.41176 7.28591 7.43153 7.23085 7.49329C7.16168 7.5709 7.15684 7.59395 7.08798 7.67298L1.68164 14.0807C1.6238 14.1523 1.59464 14.1733 1.5319 14.2535C1.05498 14.8629 0.667969 15.1138 0.667969 16.0104C0.667969 16.8579 1.21115 17.2592 1.64575 17.6938C2.09913 18.1472 2.52295 18.571 2.97634 19.0244C3.42973 19.4778 3.85355 19.9016 4.30693 20.355C4.89497 20.943 5.13848 21.3328 6.15161 21.3328C6.82807 21.3328 7.39604 20.7747 7.87644 20.3561L8.37965 19.9319C9.37232 19.0482 10.6513 18.0488 11.6846 17.1484L12.9958 16.0404C13.4319 15.6521 13.8708 15.3205 14.3068 14.9321L15.6181 13.8241C15.724 13.7317 15.8462 13.6309 15.9497 13.5509L16.9576 12.7041C17.4522 12.8193 17.2074 12.8654 17.885 12.8654C19.2191 12.8654 20.0389 11.2877 19.3751 10.1656C19.3215 10.0749 19.2559 10.0316 19.2559 9.88165V7.0995C19.2559 6.97603 20.2644 6.03058 20.4151 5.87979C21.0713 5.2236 21.3123 4.98533 21.3123 4.03512C21.3123 3.26673 20.3927 2.53083 19.9313 2.06946C19.4663 1.6045 18.7277 0.688477 17.9656 0.688477C17.5044 0.688477 17.1354 0.718891 16.7496 1.00465C16.3153 1.32643 15.0515 2.74485 14.9013 2.74485Z" fill="#539580"/>
<path fill-rule="evenodd" clip-rule="evenodd" d="M12.8848 20.1635C12.8848 20.3712 13.0325 20.6079 13.1656 20.6892C13.6608 20.9917 15.2426 20.5588 15.8417 20.2576C16.7537 19.7991 17.2968 19.3637 17.8956 18.5617C18.4505 17.8187 18.9196 16.7224 18.9327 15.7683C18.9367 15.4776 19.0168 15.2768 18.8923 15.0431C18.6193 14.5308 17.7335 14.6197 17.7219 15.4043C17.705 16.5488 17.2661 17.5366 16.5036 18.2987C14.9129 19.8884 13.5273 19.3467 13.1147 19.708C12.9993 19.809 12.8848 19.9654 12.8848 20.1635Z" fill="#539580"/>
<path fill-rule="evenodd" clip-rule="evenodd" d="M1.83736 9.11535C2.63519 9.11535 2.3423 8.09463 2.63852 7.215C2.75659 6.86436 2.89716 6.57719 3.07429 6.27986C3.7617 5.12599 5.16867 4.2744 6.51472 4.27696C6.78027 4.27746 6.9001 4.25949 7.05077 4.12756C7.38097 3.83843 7.35314 3.38499 7.00107 3.14522C6.61512 2.88237 5.24147 3.19824 4.88947 3.33717L3.50776 4.05214C3.40513 4.13022 3.34172 4.1696 3.24806 4.23597C3.14932 4.30597 2.89723 4.54372 2.80314 4.6378C2.00226 5.43869 1.23016 6.91965 1.23157 8.10659C1.23196 8.42037 1.17269 8.57897 1.2969 8.80883C1.3815 8.96537 1.62449 9.11535 1.83736 9.11535Z" fill="#539580"/>
<path fill-rule="evenodd" clip-rule="evenodd" d="M4.25685 9.11511C4.85408 9.11511 4.85928 8.44576 4.88965 8.25604C4.96955 7.75692 5.10876 7.51652 5.39575 7.22994C5.66766 6.95838 5.90751 6.79957 6.37509 6.71741C6.66274 6.66688 6.80102 6.73308 7.00686 6.58308C7.72188 6.06209 7.09408 4.78782 5.13069 5.87622C4.85828 6.02724 4.59964 6.24762 4.40531 6.48142C4.08512 6.86662 3.86342 7.18426 3.73146 7.70266C3.60344 8.20565 3.48798 9.11511 4.25685 9.11511Z" fill="#539580"/>
<path fill-rule="evenodd" clip-rule="evenodd" d="M12.8848 17.7441C12.8848 18.3774 13.5057 18.4101 13.9982 18.3334C14.7854 18.2108 15.5592 17.7174 15.9823 17.0918C16.0547 16.9848 16.1008 16.9147 16.1686 16.7943C16.3668 16.4421 16.554 15.8539 16.554 15.3249C16.554 14.8546 15.8942 14.4464 15.4533 14.95C15.1403 15.3075 15.5242 15.8554 14.7902 16.5851C14.4959 16.8776 14.2804 17.023 13.7783 17.1055C13.5742 17.139 12.8848 17.1374 12.8848 17.7441Z" fill="#539580"/>
</svg>
