<svg width="30" height="30" viewBox="0 0 30 30" fill="none" xmlns="http://www.w3.org/2000/svg">
<path fill-rule="evenodd" clip-rule="evenodd" d="M11.1644 15.3274C11.7627 16.9385 13.1659 18.2045 14.4365 19.0275L15.2038 19.4144C16.399 19.7831 17.2474 19.7542 18.2438 18.7125C18.6018 18.3382 19.0008 17.887 19.4009 17.7384C20.0207 17.5082 21.3516 18.4602 21.8925 18.8671C22.4767 19.3065 23.786 20.2438 24.0341 20.9118C24.1947 21.3441 23.1107 22.0863 22.7452 22.3503C20.4078 24.0388 18.6971 24.1334 16.1557 22.9863C15.9749 22.9047 15.8993 22.8396 15.7356 22.7578C14.909 22.3453 13.9661 21.6609 13.2601 21.0598C12.2186 20.1731 11.2481 19.1982 10.3151 18.0959C8.69065 16.1766 7.18986 13.7927 7.16 11.1827C7.1542 10.6749 7.21308 10.1734 7.38928 9.71334C7.68258 8.94741 8.06692 8.3291 8.58901 7.6742C8.86036 7.33379 9.6515 6.38895 10.0877 6.22694C10.1496 6.20395 10.2921 6.24219 10.3512 6.26272C10.4445 6.29518 10.4944 6.33169 10.5726 6.39033C10.965 6.68462 11.3641 7.27943 11.6519 7.69957C12.0713 8.31186 13.3569 10.088 13.1525 11.0606C13.1019 11.3011 12.9262 11.4544 12.7534 11.6124C12.0322 12.2712 11.3264 12.7934 11.08 13.7843C10.9717 14.2199 10.9516 14.7545 11.1644 15.3274ZM6.02028 13.8791C6.59913 15.4378 6.72133 15.7341 7.65287 17.187C8.01234 17.7477 8.71735 18.6745 9.15748 19.1713C9.43605 19.4856 9.66903 19.771 9.94311 20.0525L10.7681 20.9242C11.1205 21.3045 12.0769 22.1426 12.5004 22.488C13.2997 23.1397 14.3395 23.8692 15.2755 24.2958C15.3853 24.3459 15.4079 24.363 15.4992 24.4183L16.2897 24.7547C17.7465 25.2345 19.4194 25.6485 21.0149 25.0559C22.3991 24.5419 23.3726 23.9761 24.4243 23.05C24.8216 22.7001 25.1762 22.3851 25.3972 21.9565C25.4014 21.9482 25.4079 21.9366 25.4122 21.9284L25.6323 21.2945C25.7927 20.1126 24.8103 19.205 24.0598 18.566C23.5485 18.1307 22.7413 17.4952 22.1715 17.1134L21.3418 16.6337C21.2032 16.5463 21.0806 16.4836 20.9101 16.4304C20.5212 16.3091 20.54 16.2584 20.0158 16.1681C19.6792 16.1101 19.3626 16.1045 18.9374 16.2247C18.1611 16.4441 17.7606 16.9924 17.261 17.4572C16.7879 17.8974 16.4585 18.3398 15.4827 17.8138C14.7265 17.406 12.1884 15.3222 12.6301 14.0749C12.7692 13.6819 13.2915 13.284 13.6025 12.9812C13.7866 12.802 14.0011 12.6234 14.1702 12.4367C15.476 10.9945 14.4171 9.06367 13.5549 7.66972L12.4788 6.12462C11.7038 5.1438 10.7936 4.28542 9.41315 4.7981C8.2477 5.23093 6.58056 7.65721 6.14099 8.61632C5.85194 9.24694 5.70766 9.67843 5.61202 10.3681L5.57444 11.0157C5.58252 11.861 5.6417 12.8597 6.02028 13.8791Z" fill="white"/>
</svg>
