<svg width="20" height="19" viewBox="0 0 20 19" fill="none" xmlns="http://www.w3.org/2000/svg">
<path fill-rule="evenodd" clip-rule="evenodd" d="M1.13379 16.2041H18.2162V17.3379H1.13379V16.2041ZM1.13379 11.6689H2.26757V13.9365H3.43916V11.6689H4.53514V12.8027H5.70673V11.6689H6.80271V13.9365H7.9743V11.6689H9.10808V12.8027H10.2419V11.6689H11.3757V13.9365H12.5472V11.6689H13.6432V12.8027H14.8148V11.6689H15.9108V13.9365H17.0824V11.6689H18.2162V15.0703H1.13379V11.6689ZM0 18.4717H19.3499V10.5352H0V18.4717Z" fill="#539580"/>
<path fill-rule="evenodd" clip-rule="evenodd" d="M5 8.40136H6.13379V6.26757H13.2162V8.40136H14.3499V0H13.2162V5.13379H6.13379V0H5V8.40136Z" fill="#539580"/>
<path d="M0 6.87109H1.87263C1.77827 7.01199 1.66621 7.10578 1.56054 7.19422C1.36556 7.35741 1.19236 7.50237 1.19236 7.8915C1.19236 8.19874 1.4679 8.3828 1.83483 8.3828C2.06132 8.3828 2.50683 7.90673 2.7747 7.62049C2.83358 7.55758 2.88387 7.50383 2.92137 7.46633C2.95932 7.42838 3.01344 7.37771 3.07665 7.31852C3.36357 7.04987 3.83786 6.60579 3.83786 6.37979C3.83786 6.03777 3.7772 5.98071 3.57816 5.79347C3.53581 5.75363 3.4872 5.7079 3.43157 5.65227L2.43007 4.65076C2.37101 4.5917 2.32269 4.54005 2.2806 4.49507C2.09152 4.29298 2.02846 4.22559 1.68366 4.22559C1.37641 4.22559 1.19236 4.50114 1.19236 4.86807C1.19236 5.07723 1.41622 5.28428 1.61506 5.46818C1.72016 5.56539 1.81827 5.65613 1.87263 5.7373H0V6.87109Z" fill="#539580"/>
<path d="M19.3379 6.87109H17.4652C17.5596 7.01199 17.6716 7.10578 17.7773 7.19422C17.9723 7.35741 18.1455 7.50237 18.1455 7.8915C18.1455 8.19874 17.87 8.3828 17.503 8.3828C17.2765 8.3828 16.831 7.90673 16.5632 7.62049C16.5043 7.55758 16.454 7.50383 16.4165 7.46633C16.3785 7.42838 16.3244 7.37771 16.2612 7.31852C15.9743 7.04987 15.5 6.60579 15.5 6.37979C15.5 6.03777 15.5607 5.98071 15.7597 5.79347C15.802 5.75363 15.8507 5.7079 15.9063 5.65227L16.9078 4.65076C16.9668 4.5917 17.0152 4.54005 17.0573 4.49507C17.2463 4.29298 17.3094 4.22559 17.6542 4.22559C17.9614 4.22559 18.1455 4.50114 18.1455 4.86807C18.1455 5.07723 17.9216 5.28428 17.7228 5.46818C17.6177 5.56539 17.5196 5.65613 17.4652 5.7373H19.3379V6.87109Z" fill="#539580"/>
</svg>
